<?xml version="1.0" encoding="UTF-8" standalone="no"?>
<!-- Created with Inkscape (http://www.inkscape.org/) -->

<svg
   xmlns:dc="http://purl.org/dc/elements/1.1/"
   xmlns:cc="http://creativecommons.org/ns#"
   xmlns:rdf="http://www.w3.org/1999/02/22-rdf-syntax-ns#"
   xmlns:svg="http://www.w3.org/2000/svg"
   xmlns="http://www.w3.org/2000/svg"
   xmlns:xlink="http://www.w3.org/1999/xlink"
   xmlns:sodipodi="http://sodipodi.sourceforge.net/DTD/sodipodi-0.dtd"
   xmlns:inkscape="http://www.inkscape.org/namespaces/inkscape"
   width="145"
   height="250"
   viewBox="0 0 145 250"
   id="svg3343"
   version="1.1"
   inkscape:version="0.91 r13725"
   sodipodi:docname="kelly_small_body.svg">
  <defs
     id="defs3345">
    <linearGradient
       inkscape:collect="always"
       id="linearGradient4258">
      <stop
         id="stop4262"
         offset="0"
         style="stop-color:#ff5354;stop-opacity:1" />
      <stop
         id="stop4260"
         offset="1"
         style="stop-color:#ffe1bd;stop-opacity:1;" />
    </linearGradient>
    <linearGradient
       inkscape:collect="always"
       xlink:href="#linearGradient4258"
       id="linearGradient4264"
       x1="110.35714"
       y1="872.18359"
       x2="101.17967"
       y2="866.56177"
       gradientUnits="userSpaceOnUse"
       gradientTransform="matrix(1.0709502,0,0,1.7196015,-14.286165,-627.28558)" />
    <linearGradient
       inkscape:collect="always"
       xlink:href="#linearGradient4258"
       id="linearGradient4176"
       x1="20.937202"
       y1="850.89117"
       x2="63.87508"
       y2="857.39673"
       gradientUnits="userSpaceOnUse" />
    <linearGradient
       inkscape:collect="always"
       xlink:href="#linearGradient4258"
       id="linearGradient4189"
       x1="3.8151491"
       y1="940.15533"
       x2="82.249069"
       y2="891.37244"
       gradientUnits="userSpaceOnUse"
       gradientTransform="matrix(0.94379636,0,0,0.57102672,9.5018809,373.22075)" />
  </defs>
  <sodipodi:namedview
     id="base"
     pagecolor="#ffffff"
     bordercolor="#666666"
     borderopacity="1.0"
     inkscape:pageopacity="0.0"
     inkscape:pageshadow="2"
     inkscape:zoom="2.8284271"
     inkscape:cx="13.718088"
     inkscape:cy="128.78463"
     inkscape:document-units="px"
     inkscape:current-layer="layer1"
     showgrid="false"
     units="px"
     showborder="true"
     inkscape:window-width="1366"
     inkscape:window-height="705"
     inkscape:window-x="-8"
     inkscape:window-y="-8"
     inkscape:window-maximized="1" />
  <metadata
     id="metadata3348">
    <rdf:RDF>
      <cc:Work
         rdf:about="">
        <dc:format>image/svg+xml</dc:format>
        <dc:type
           rdf:resource="http://purl.org/dc/dcmitype/StillImage" />
        <dc:title></dc:title>
      </cc:Work>
    </rdf:RDF>
  </metadata>
  <g
     inkscape:label="Layer 1"
     inkscape:groupmode="layer"
     id="layer1"
     transform="translate(0,-802.36214)">
    <g
       id="g4266"
       transform="translate(-8.9390975,-38.801176)">
      <path
         style="opacity:1;fill:#672900;fill-opacity:1;stroke:none;stroke-opacity:1"
         d="m 96.844191,983.27709 c 1e-6,9.59761 -4.836929,11.12618 -8.688012,11.12618 -3.851083,0 -1.18484,-1.95973 -1.18484,-11.55734 10e-7,-9.59761 -8.454404,-14.1443 3.54298,-17.16243 3.735957,-0.93984 6.329871,7.99598 6.329872,17.59359 z"
         id="path4260"
         inkscape:connector-curvature="0"
         sodipodi:nodetypes="sssss" />
      <path
         style="opacity:1;fill:#584b00;fill-opacity:1;stroke:none;stroke-opacity:1"
         d="m 93.699627,990.97086 c 4.573137,0.29694 3.189776,4.5942 7.756313,4.42795 5.37012,-0.19551 5.28909,0.25996 5.74903,1.22937 l 0.39301,0.82837 c 0.45994,0.96942 -0.82902,2.38874 -1.8975,2.29051 -3.70543,-0.34066 -6.858255,1.18464 -11.155596,-1.3757 l -3.973105,0.11806 -1.150536,0.90393 c -0.843732,0.66285 -3.931823,0.37259 -3.823263,-1.9368 0.09425,-2.00491 -0.506441,-4.79059 0.303493,-5.89714 0.950106,-1.29806 6.727422,-0.65807 7.798154,-0.58855 z"
         id="path4262"
         inkscape:connector-curvature="0"
         sodipodi:nodetypes="sssssccssss" />
    </g>
    <g
       id="g4229"
       transform="matrix(0.55644596,-0.47774359,0.49766092,0.53417595,-432.02033,405.91914)">
      <path
         style="opacity:1;fill:#584400;fill-opacity:1;stroke:none;stroke-opacity:1"
         d="m 57.600465,986.60937 c -4.646834,18.43243 -1.24521,19.74903 2.091078,19.74903 3.336288,0 8.596648,-9.68095 8.596654,-22.76947 10e-7,-13.08853 -4.460861,-34.309 -14.405204,-24.39591 -4.029206,4.01654 6.91701,14.72491 3.717472,27.41635 z"
         id="path4210"
         inkscape:connector-curvature="0"
         sodipodi:nodetypes="sssss" />
      <path
         style="opacity:1;fill:#ddc2a4;fill-opacity:1;stroke:none;stroke-opacity:1"
         d="m 53.650649,1012.3994 c 4.482881,1.9185 -6.710561,10.2231 -2.091078,10.2231 4.619483,0 14.405207,-4.4176 14.405205,-9.2937 2e-6,-4.8761 -3.744829,-8.829 -8.364313,-8.829 -4.619483,0 -8.828998,5.8116 -3.949814,7.8996 z"
         id="path4212"
         inkscape:connector-curvature="0"
         sodipodi:nodetypes="sssss" />
      <path
         style="opacity:1;fill:#6d5d53;fill-opacity:1;stroke:none;stroke-opacity:1"
         d="m 64.425374,1001.2409 -9.305697,-0.7114 c -0.925069,-0.071 -1.597006,2.7618 -1.812093,3.3478 l -0.982768,2.6779 c -0.215088,0.586 0.547321,1.1367 1.472391,1.2073 l 9.305697,0.7114 c 0.92507,0.071 1.75784,-0.3539 1.867212,-0.9521 l 0.927649,-5.0735 c 0.109365,-0.5982 -0.547321,-1.1367 -1.472391,-1.2074 z"
         id="path4214"
         inkscape:connector-curvature="0"
         sodipodi:nodetypes="sssssssss" />
    </g>
    <path
       style="opacity:1;fill:#803300;fill-opacity:1;stroke:none;stroke-opacity:1"
       d="m 85.40216,893.28337 c 6.913113,11.09074 7.209685,40.41391 -10.866516,43.92324 -19.05899,3.70014 -26.66274,-2.36812 -15.013618,-17.45355 9.394482,-12.16574 -6.446614,-23.19657 -2.142695,-30.89126 6.650232,-11.8895 21.109708,-6.66919 28.022829,4.42157 z"
       id="path4195"
       inkscape:connector-curvature="0"
       sodipodi:nodetypes="sssss" />
    <path
       sodipodi:nodetypes="ccsc"
       inkscape:connector-curvature="0"
       id="path4196"
       d="m 78.766747,938.7955 c -22.808991,4.73877 -31.506904,-2.626 -19.857782,-17.71142 3.382233,-9.22307 5.209649,-3.09667 15.618404,-6.1641 12.675988,-3.73559 20.658815,6.8949 4.239378,23.87552 z"
       style="opacity:1;fill:#806e00;fill-opacity:1;stroke:none;stroke-opacity:1" />
    <rect
       style="opacity:1;fill:#917c6f;fill-opacity:1;stroke:none;stroke-opacity:1"
       id="rect4200"
       width="31.306974"
       height="8.4476128"
       x="79.617653"
       y="913.41522"
       ry="1.609072"
       transform="matrix(0.99990534,-0.01375889,-0.01997927,0.99980039,0,0)" />
    <ellipse
       style="opacity:1;fill:#483e37;fill-opacity:1;stroke:none;stroke-opacity:1"
       id="path4202"
       ry="5.5087161"
       rx="3.1632643"
       cy="914.28888"
       cx="119.37591"
       transform="matrix(0.99980039,0.01997941,-0.03440773,0.99940788,0,0)" />
    <path
       style="opacity:1;fill:url(#linearGradient4189);fill-opacity:1;stroke:none;stroke-opacity:1"
       d="m 69.366285,874.3772 c 5.408099,-5.71418 9.854154,-5.40267 17.761967,-1.32675 l -1.315701,19.50301 c -1.31445,5.45871 -8.614327,10.21656 -12.441997,4.89531 -6.0289,-8.7042 -4.735214,-16.52636 -4.004269,-23.07157 z"
       id="rect4180"
       inkscape:connector-curvature="0"
       sodipodi:nodetypes="ccccc" />
    <path
       style="fill:#ffe0bd;fill-opacity:1;fill-rule:evenodd;stroke:none;stroke-width:1px;stroke-linecap:butt;stroke-linejoin:miter;stroke-opacity:1"
       d="m 101.4232,861.58063 c 0.79269,11.02537 0.1487,11.6195 -0.83795,18.84832 -1.69863,12.44524 -22.337875,21.73561 -28.165218,9.78303 -7.570986,-15.52901 -23.469159,-8.60949 -25.929234,-27.94316 -2.605541,-20.47689 18.32811,-34.86691 33.467453,-32.38135 15.139342,2.48557 19.984678,11.10431 21.464949,31.69316 z"
       id="path3351"
       inkscape:connector-curvature="0"
       sodipodi:nodetypes="ssssss" />
    <path
       style="fill:url(#linearGradient4264);fill-opacity:1;stroke:none"
       d="m 101.22339,865.7046 c 3.63592,5.68567 -3.363963,5.55962 -11.340782,5.55962 -8.159964,0 -7.647834,-0.0113 -7.647831,-7.28816 -3e-6,-7.27639 -2.946012,-19.32464 4.787323,-16.08159 6.247546,2.61996 10.185237,11.53002 14.20129,17.81013 z"
       id="path4163"
       inkscape:connector-curvature="0"
       sodipodi:nodetypes="sssss" />
    <g
       id="g4290"
       transform="matrix(1,0,0,0.84375,2.6785715,136.80322)">
      <ellipse
         ry="5.7142859"
         rx="3.75"
         cy="850.39783"
         cx="83.75"
         id="path4268"
         style="opacity:1;fill:#000000;fill-opacity:1;stroke:none" />
      <ellipse
         ry="1.9642856"
         rx="1.25"
         cy="848.07635"
         cx="82.321426"
         id="path4270"
         style="opacity:1;fill:#ffffff;fill-opacity:1;stroke:none" />
    </g>
    <g
       id="g4286"
       transform="translate(4.1071429,4.2857144)">
      <ellipse
         style="opacity:1;fill:#000000;fill-opacity:1;stroke:none"
         id="ellipse4278"
         cx="94.017853"
         cy="848.16571"
         rx="2.5892856"
         ry="4.0178571" />
      <ellipse
         style="opacity:1;fill:#ffffff;fill-opacity:1;stroke:none"
         id="ellipse4280"
         cx="92.954926"
         cy="846.43719"
         rx="0.78656453"
         ry="1.2848772" />
    </g>
    <path
       style="opacity:1;fill:#800000;fill-opacity:1;stroke:none"
       d="m 80.722535,845.98268 c 1.533405,-0.11598 2.026288,-0.43962 5.109434,-0.39644 1.811033,0.27406 2.333576,1.21928 3.379756,1.9043 -5.413939,0.70595 -9.487901,2.20192 -13.073878,4.6179 0.81271,-2.38915 1.85782,-5.27054 4.584688,-6.12576 z"
       id="rect4294"
       inkscape:connector-curvature="0"
       sodipodi:nodetypes="ccccc" />
    <path
       sodipodi:nodetypes="ccccc"
       inkscape:connector-curvature="0"
       id="path4297"
       d="m 100.29041,845.02025 c -1.072634,-0.07 -1.41741,-0.26519 -3.574101,-0.23914 -1.266841,0.16532 -1.632363,0.73552 -2.364176,1.14876 3.787105,0.42585 6.636877,1.32829 9.145297,2.78572 -0.56849,-1.44124 -1.29955,-3.17943 -3.20702,-3.69534 z"
       style="opacity:1;fill:#800000;fill-opacity:1;stroke:none" />
    <path
       style="opacity:1;fill:#800000;fill-opacity:1;stroke:none"
       d="m 56.316004,830.63368 c 10.662304,-5.36026 18.846793,-1.59096 39.347131,-6.08815 3.564167,4.46194 -2.1659,9.14115 -3.486716,11.64399 -4.633067,1.08453 -10.718473,5.42196 -16.597874,0.27482 -4.059756,2.87689 -4.669409,8.54671 -12.014978,7.64493 0.862229,7.78382 -7.808581,25.41387 -13.776459,27.18253 -7.222806,2.14057 -3.466568,-32.36997 6.528896,-40.65812 z"
       id="rect4158"
       inkscape:connector-curvature="0"
       sodipodi:nodetypes="cccccsc" />
    <g
       id="g4191"
       transform="translate(1.16171,-2.0910781)">
      <path
         sodipodi:nodetypes="sssss"
         inkscape:connector-curvature="0"
         id="path4166"
         d="m 63.841068,857.81792 c 0,4.31914 0.716986,5.6727 -4.432928,7.51366 -3.62131,1.29452 -9.428188,-4.88208 -9.428188,-9.20121 0,-4.31913 5.951614,-8.11188 9.428188,-6.43977 3.827644,1.84096 4.432928,3.80818 4.432928,8.12732 z"
         style="opacity:1;fill:url(#linearGradient4176);fill-opacity:1;stroke:none;stroke-opacity:1" />
      <path
         sodipodi:nodetypes="cccsccccc"
         inkscape:connector-curvature="0"
         id="path4164"
         d="m 53.471845,851.33338 c 2.407639,-1.79004 4.802903,-1.15691 6.516101,-0.13161 1.806935,1.15349 3.045242,2.63768 1.850325,4.09052 -0.858264,0.65265 -2.0596,0.8235 -3.382806,1.27696 -1.965131,0.67344 -3.172522,2.08037 -4.414429,2.81582 -1.408129,0.12594 1.605161,-2.52983 1.605161,-2.52983 2.707977,-1.59991 4.331234,-2.71617 2.596915,-4.00167 -2.598468,-1.0474 -6.641245,1.3003 -6.641245,1.3003 0.311884,-1.24739 0.771277,-1.77621 1.869978,-2.82049 z"
         style="fill:#ad6452;fill-opacity:0.50887571;fill-rule:evenodd;stroke:none;stroke-width:1px;stroke-linecap:butt;stroke-linejoin:miter;stroke-opacity:1" />
      <ellipse
         transform="matrix(0.88500782,-0.46557615,0.43875165,0.89860836,0,0)"
         ry="2.1201811"
         rx="3.9439082"
         cy="788.78729"
         cx="-324.3681"
         id="path4177"
         style="opacity:1;fill:#ffe0bd;fill-opacity:1;stroke:none;stroke-opacity:1" />
    </g>
    <path
       style="opacity:1;fill:#800000;fill-opacity:1;stroke:none;stroke-opacity:1"
       d="m 83.306337,874.68185 19.527553,-2.21428 c 7.35274,15.21096 -25.640625,15.08871 -19.527553,2.21428 z"
       id="rect4184"
       inkscape:connector-curvature="0"
       sodipodi:nodetypes="ccc" />
    <path
       sodipodi:nodetypes="ccc"
       inkscape:connector-curvature="0"
       id="path4187"
       d="m 86.670246,876.97531 c 4.548117,0 9.096233,0 13.644334,0 4.8188,5.33465 -17.650678,4.51521 -13.644334,0 z"
       style="opacity:1;fill:#f9f9f9;fill-opacity:1;stroke:none;stroke-opacity:1" />
    <path
       style="opacity:1;fill:#800000;fill-opacity:1;stroke:none"
       d="m 83.974019,883.61724 c 7.238239,2.96322 15.640354,0.47613 15.640354,0.47613 1.389347,1.62603 1.512747,32.29991 -6.181958,27.26767 -1.655713,-9.04705 -9.391488,-19.86444 -9.458396,-27.7438 z"
       id="rect4305"
       inkscape:connector-curvature="0"
       sodipodi:nodetypes="cccc" />
    <path
       style="opacity:1;fill:#800000;fill-opacity:1;stroke:none"
       d="m 95.694147,871.41021 c -6.11245,1.90251 -4.00167,-0.77594 -17.34047,5.71564 -8.27253,5.59364 -4.936679,6.16569 0.619881,4.6576 5.46752,0.0589 8.874867,-7.70341 12.650357,-4.5961 3.48335,3.15774 4.367092,-0.47089 4.611092,-1.47743 0.005,-1.24659 1.9842,-3.38793 -0.54086,-4.29971 z"
       id="rect4300"
       inkscape:connector-curvature="0"
       sodipodi:nodetypes="cccccc" />
    <path
       sodipodi:nodetypes="cccccc"
       inkscape:connector-curvature="0"
       id="path4303"
       d="m 98.420681,871.41021 c 3.820789,1.16076 2.501379,-0.47342 10.839239,3.48724 5.17102,3.41281 3.08584,3.76183 -0.38747,2.84171 -3.41766,0.0359 -5.54753,-4.70003 -7.90753,-2.80418 -2.177384,1.92661 -2.729801,-0.28731 -2.882321,-0.90141 -0.0031,-0.76058 -1.240291,-2.06706 0.338082,-2.62336 z"
       style="opacity:1;fill:#800000;fill-opacity:1;stroke:none" />
    <g
       id="g4202"
       transform="matrix(0.69537015,0.29677648,-0.35798425,0.57647649,385.75599,331.67489)">
      <path
         sodipodi:nodetypes="sssss"
         inkscape:connector-curvature="0"
         id="path4215"
         d="m 26.71933,983.82127 c 4.646834,18.43243 1.24521,19.74903 -2.091078,19.74903 -3.336288,0 -8.596648,-9.68095 -8.596654,-22.76947 -10e-7,-13.08853 4.460861,-34.309 14.405204,-24.39591 4.029206,4.01654 -6.91701,14.72491 -3.717472,27.41635 z"
         style="opacity:1;fill:#806600;fill-opacity:1;stroke:none;stroke-opacity:1" />
      <path
         sodipodi:nodetypes="sssss"
         inkscape:connector-curvature="0"
         id="path4219"
         d="m 30.669146,1009.6113 c -4.482881,1.9185 6.710561,10.2231 2.091078,10.2231 -4.619483,0 -14.405207,-4.4176 -14.405205,-9.2937 -2e-6,-4.8761 3.744829,-8.829 8.364313,-8.829 4.619483,0 8.828998,5.8116 3.949814,7.8996 z"
         style="opacity:1;fill:#ffe0bd;fill-opacity:1;stroke:none;stroke-opacity:1" />
      <path
         sodipodi:nodetypes="sssssssss"
         inkscape:connector-curvature="0"
         id="rect4217"
         d="m 19.894421,998.45275 9.305697,-0.7114 c 0.925069,-0.071 1.597006,2.76185 1.812093,3.34785 l 0.982768,2.6779 c 0.215088,0.586 -0.547321,1.1367 -1.472391,1.2073 l -9.305697,0.7114 c -0.92507,0.071 -1.75784,-0.3539 -1.867212,-0.9521 l -0.927649,-5.07355 c -0.109365,-0.5982 0.547321,-1.1367 1.472391,-1.2074 z"
         style="opacity:1;fill:#917c6f;fill-opacity:1;stroke:none;stroke-opacity:1" />
    </g>
    <path
       style="opacity:1;fill:#803300;fill-opacity:1;stroke:none;stroke-opacity:1"
       d="m 51.710109,944.51813 c -1e-6,9.59761 4.836929,11.12618 8.688012,11.12618 3.851083,0 1.18484,-1.95974 1.18484,-11.55734 -10e-7,-9.59761 8.454404,-14.1443 -3.54298,-17.16243 -3.735957,-0.93984 -6.329871,7.99598 -6.329872,17.59359 z"
       id="path4248"
       inkscape:connector-curvature="0"
       sodipodi:nodetypes="sssss" />
    <path
       style="opacity:1;fill:#806e00;fill-opacity:1;stroke:none;stroke-opacity:1"
       d="m 54.854673,952.2119 c -4.573137,0.29693 -3.189776,4.5942 -7.756313,4.42795 -5.370123,-0.19551 -5.289091,0.25996 -5.749026,1.22937 l -0.393014,0.82836 c -0.459935,0.96943 0.829018,2.38874 1.897499,2.29052 3.705432,-0.34066 6.858256,1.18462 11.155597,-1.37571 l 3.973105,0.11806 1.150536,0.90393 c 0.843732,0.66289 3.931823,0.37259 3.823263,-1.9368 -0.09425,-2.00491 0.506441,-4.79058 -0.303493,-5.89714 -0.950106,-1.29806 -6.727422,-0.65806 -7.798154,-0.58855 z"
       id="rect4251"
       inkscape:connector-curvature="0"
       sodipodi:nodetypes="sssssccssss" />
  </g>
</svg>
