<?xml version="1.0" encoding="UTF-8" standalone="no"?>
<!-- Created with Inkscape (http://www.inkscape.org/) -->

<svg
   xmlns:dc="http://purl.org/dc/elements/1.1/"
   xmlns:cc="http://creativecommons.org/ns#"
   xmlns:rdf="http://www.w3.org/1999/02/22-rdf-syntax-ns#"
   xmlns:svg="http://www.w3.org/2000/svg"
   xmlns="http://www.w3.org/2000/svg"
   xmlns:sodipodi="http://sodipodi.sourceforge.net/DTD/sodipodi-0.dtd"
   xmlns:inkscape="http://www.inkscape.org/namespaces/inkscape"
   id="svg2985"
   version="1.1"
   inkscape:version="0.48.4 r9939"
   width="800"
   height="480"
   sodipodi:docname="level_1_background.svg"
   inkscape:export-filename="C:\dev\kelly\libgdx\android\assets\level_1_background.png"
   inkscape:export-xdpi="90"
   inkscape:export-ydpi="90">
  <metadata
     id="metadata2991">
    <rdf:RDF>
      <cc:Work
         rdf:about="">
        <dc:format>image/svg+xml</dc:format>
        <dc:type
           rdf:resource="http://purl.org/dc/dcmitype/StillImage" />
        <dc:title></dc:title>
      </cc:Work>
    </rdf:RDF>
  </metadata>
  <defs
     id="defs2989" />
  <sodipodi:namedview
     pagecolor="#ffffff"
     bordercolor="#666666"
     borderopacity="1"
     objecttolerance="10"
     gridtolerance="10"
     guidetolerance="10"
     inkscape:pageopacity="0"
     inkscape:pageshadow="2"
     inkscape:window-width="1680"
     inkscape:window-height="988"
     id="namedview2987"
     showgrid="false"
     inkscape:zoom="1.0942477"
     inkscape:cx="439.88228"
     inkscape:cy="229.28493"
     inkscape:window-x="-8"
     inkscape:window-y="-8"
     inkscape:window-maximized="1"
     inkscape:current-layer="svg2985" />
  <rect
     style="fill:#7ec0ee;fill-opacity:1;fill-rule:evenodd;stroke:none"
     id="rect2997"
     width="800"
     height="480"
     x="0"
     y="0" />
  <path
     style="fill:#fff6d5;stroke:none"
     d="M 0.4395605,479.44871 799.89011,480 800,238.95369 c -11.20165,13.28699 -10.50774,-24.82385 -47.87043,-7.3223 -24.97713,-46.73759 -42.95127,-5.08098 -55.09307,-18.14378 -19.50941,-20.98928 -46.58026,-12.64721 -48.16988,15.53423 -15.72001,-24.82022 -45.71651,-27.76812 -56.22925,-17.6694 -25.00151,-16.51252 -38.37755,-0.37764 -42.00961,9.65499 -2.02412,-12.62484 -33.13692,-24.66829 -36.10936,7.23951 -19.51906,-37.54202 -36.35872,-29.20123 -61.97309,-27.90846 -0.70681,-18.55657 -37.71324,-31.05633 -54.73914,-20.44899 -16.53746,-12.22465 -46.87644,5.161 -45.70634,22.95451 -18.35164,-1.06587 -47.14506,6.16097 -47.58904,32.33077 -15.43827,-16.46033 -36.55437,-19.1705 -48.02728,-7.57879 -9.14472,-15.12763 -13.08871,-22.21929 -42.41758,-15.69812 -2.39777,-35.19615 -44.17526,-31.98921 -50.36785,-8.3886 -13.30873,-11.01497 -42.91731,12.21783 -37.44081,24.86134 -18.00313,-3.27288 -27.970242,4.74942 -36.147379,23.4844 C 80.324279,238.95966 71.351037,228.5973 54.065933,243.0336 44.978835,224.95395 38.236811,233.54323 30.76923,233.88126 13.728612,226.88933 5.5858791,228.77927 0,238.62288 z"
     id="path3769"
     inkscape:connector-curvature="0"
     sodipodi:nodetypes="ccccsccccccccccccccccc"
     inkscape:export-filename="C:\dev\kelly\libgdx\android\assets\level_1_background.png"
     inkscape:export-xdpi="90"
     inkscape:export-ydpi="90" />
  <path
     style="fill:#a6d785;fill-opacity:1;stroke:#bced91;stroke-width:1.02558362px;stroke-linecap:butt;stroke-linejoin:miter;stroke-opacity:0"
     d="M 0,339.82027 0,480 l 800,0 0,-140.08605 c -56.38899,19.00475 -106.37448,-41.61753 -199.66058,-38.6097 -76.66813,4.11318 -96.8192,34.24508 -161.72245,33.89714 -38.98752,-0.50847 -68.70609,-34.39796 -118.64247,-34.00038 -43.64464,2.55707 -32.76269,33.01414 -119.16623,35.31684 -38.7137,3.86354 -64.03478,-20.78291 -84.57202,-23.22348 C 91.093499,309.32036 22.419672,325.46564 0,339.82027 z"
     id="path3771"
     inkscape:connector-curvature="0"
     sodipodi:nodetypes="cccccccccc" />
  <path
     style="fill:#8dd35f;stroke:none"
     d="m 112.3988,415.15779 c -0.83351,-8.98094 -2.62966,-17.96188 -4.62501,-26.94282 2.19088,8.30973 5.13988,16.14565 8.50232,23.72317 2.39318,-6.15479 2.94353,-17.22382 4.13517,-26.58272 0.0496,8.80068 -1.66128,18.92175 0.47152,26.16004 5.19365,-3.9327 10.3873,-12.9477 15.58095,-19.74364 -4.2491,7.69795 -10.42319,15.27558 -12.56576,23.10519 -2.32646,1.1142 -4.72573,2.17907 -11.49919,0.28078 z"
     id="path2984"
     inkscape:connector-curvature="0"
     sodipodi:nodetypes="cccccccc" />
  <path
     sodipodi:nodetypes="cccccccc"
     inkscape:connector-curvature="0"
     id="path3754"
     d="m 259.56179,383.45023 c -0.67421,-6.58613 -2.12708,-13.17226 -3.74108,-19.75839 1.77216,6.0939 4.15755,11.84033 6.87736,17.39727 1.93579,-4.51358 2.38096,-12.63101 3.34486,-19.49431 0.0401,6.45394 -1.34378,13.87618 0.3814,19.18434 4.20104,-2.88402 8.40208,-9.49513 12.60312,-14.4789 -3.43701,5.64525 -8.43111,11.20227 -10.16419,16.94408 -1.88183,0.81709 -3.82255,1.59801 -9.30147,0.20591 z"
     style="fill:#8dd35f;stroke:none" />
  <path
     style="fill:#8dd35f;stroke:none"
     d="m 419.45907,416.07165 c -0.83351,-8.98094 -2.62966,-17.96188 -4.62501,-26.94282 2.19088,8.30973 5.13988,16.14565 8.50232,23.72317 2.39318,-6.15479 2.94353,-17.22382 4.13517,-26.58272 0.0496,8.80068 -1.66128,18.92175 0.47152,26.16004 5.19365,-3.9327 10.3873,-12.9477 15.58095,-19.74364 -4.2491,7.69795 -10.42319,15.27558 -12.56576,23.10519 -2.32646,1.1142 -4.72573,2.17907 -11.49919,0.28078 z"
     id="path3756"
     inkscape:connector-curvature="0"
     sodipodi:nodetypes="cccccccc" />
  <path
     sodipodi:nodetypes="cccccccc"
     inkscape:connector-curvature="0"
     id="path3758"
     d="m 591.91577,371.56992 c -0.62111,-6.58613 -1.95956,-13.17226 -3.44644,-19.75839 1.63259,6.0939 3.8301,11.84033 6.3357,17.39727 1.78334,-4.51358 2.19345,-12.63101 3.08142,-19.49431 0.037,6.45394 -1.23794,13.87618 0.35137,19.18434 3.87017,-2.88402 7.74034,-9.49513 11.61051,-14.4789 -3.16632,5.64525 -7.76708,11.20227 -9.36367,16.94408 -1.73362,0.81709 -3.52149,1.59801 -8.56889,0.20591 z"
     style="fill:#8dd35f;stroke:none" />
</svg>
