<?xml version="1.0" encoding="UTF-8" standalone="no"?>
<!-- Created with Inkscape (http://www.inkscape.org/) -->

<svg
   xmlns:dc="http://purl.org/dc/elements/1.1/"
   xmlns:cc="http://creativecommons.org/ns#"
   xmlns:rdf="http://www.w3.org/1999/02/22-rdf-syntax-ns#"
   xmlns:svg="http://www.w3.org/2000/svg"
   xmlns="http://www.w3.org/2000/svg"
   xmlns:xlink="http://www.w3.org/1999/xlink"
   xmlns:sodipodi="http://sodipodi.sourceforge.net/DTD/sodipodi-0.dtd"
   xmlns:inkscape="http://www.inkscape.org/namespaces/inkscape"
   width="896"
   height="128"
   viewBox="0 0 896 128"
   id="svg3343"
   version="1.1"
   inkscape:version="0.91 r13725"
   sodipodi:docname="dynamite_explode_128x128_final.svg"
   inkscape:export-filename="C:\dev\kelly\libgdx\kelly\resources\raw\actors\objects\sheets\explosion\explosion_128x128.png"
   inkscape:export-xdpi="90"
   inkscape:export-ydpi="90">
  <defs
     id="defs3345">
    <linearGradient
       inkscape:collect="always"
       id="linearGradient4258">
      <stop
         id="stop4262"
         offset="0"
         style="stop-color:#ff5354;stop-opacity:1" />
      <stop
         id="stop4260"
         offset="1"
         style="stop-color:#ffe1bd;stop-opacity:1;" />
    </linearGradient>
    <linearGradient
       inkscape:collect="always"
       xlink:href="#linearGradient4258"
       id="linearGradient4600"
       x1="110.35714"
       y1="872.18359"
       x2="101.17967"
       y2="866.56177"
       gradientUnits="userSpaceOnUse"
       gradientTransform="matrix(1.0709502,0,0,1.7196015,124.96384,-629.34808)" />
  </defs>
  <sodipodi:namedview
     id="base"
     pagecolor="#ffffff"
     bordercolor="#666666"
     borderopacity="1.0"
     inkscape:pageopacity="0.0"
     inkscape:pageshadow="2"
     inkscape:zoom="1"
     inkscape:cx="385.93418"
     inkscape:cy="52.5"
     inkscape:document-units="px"
     inkscape:current-layer="layer1"
     showgrid="false"
     units="px"
     showborder="true"
     inkscape:window-width="1366"
     inkscape:window-height="705"
     inkscape:window-x="-8"
     inkscape:window-y="-8"
     inkscape:window-maximized="1"
     inkscape:showpageshadow="false"
     borderlayer="true" />
  <metadata
     id="metadata3348">
    <rdf:RDF>
      <cc:Work
         rdf:about="">
        <dc:format>image/svg+xml</dc:format>
        <dc:type
           rdf:resource="http://purl.org/dc/dcmitype/StillImage" />
        <dc:title></dc:title>
      </cc:Work>
    </rdf:RDF>
  </metadata>
  <g
     inkscape:label="Layer 1"
     inkscape:groupmode="layer"
     id="layer1"
     transform="translate(0,-924.36214)">
    <g
       id="g4483"
       transform="matrix(0.81046586,0,0,0.77577194,12.55552,235.18431)">
      <path
         sodipodi:nodetypes="ccccccccccccccccc"
         inkscape:connector-curvature="0"
         id="path4465"
         d="m 34.25,988.61214 c -10,4.88951 -20,1.606 -30,1.75 10.470033,4.49157 22.428211,5.26278 30.5,15.74996 -0.416227,18.4473 -9.959859,29.4268 -17.25,42.25 10.952754,-7.1778 18.406674,-21.3533 33.5,-20.25 9.437929,4.9072 10.830797,13.39 14.75,20.75 0.758612,-8.0083 -1.458081,-16.3472 4.75,-23.75 17.938686,-2.1735 31.09429,9.2051 45.25,17.75 -7.41606,-10.2621 -20.654849,-18.8605 -19.75,-31.5 3.827242,-12.74852 12.9665,-16.39074 21.25,-21.49996 -9.5,2.25072 -19,5.27707 -28.5,-1.5 5.086599,-25.21678 19.32004,-35.18883 29.75,-51.5 -17.16667,11.44376 -34.333333,31.78483 -51.5,32 -7.68687,-12.71998 -6.430477,-26.43365 -8.75,-39.75 -2.32311,14.64343 -2.802736,30.10619 -10.75,42.25 -13.083333,-9.14539 -26.166667,-23.95382 -39.25,-38.25 13.159069,18.67143 18.978445,34.43534 26,55.5 z"
         style="fill:#ffcc00;fill-rule:evenodd;stroke:none;stroke-width:1px;stroke-linecap:butt;stroke-linejoin:miter;stroke-opacity:1" />
      <path
         sodipodi:nodetypes="ccccccccccc"
         inkscape:connector-curvature="0"
         id="path4463"
         d="m 52.75,972.86214 c 2.574231,7.33515 4.497952,14.80041 10.25,21.5 9.024014,-5.87373 13.230132,-13.67461 19.25,-20.75 -4.452306,9.50025 -9.736399,13.08924 -13,26.74996 5.629697,7.0091 13.648803,11.0447 20.5,15 -9.588007,-2.4813 -18.45913,-7.8301 -29.25,-5.5 -7.17981,0.8261 -12.2541,7.2668 -17.5,13.25 2.949052,-6.8225 9.532168,-12.4337 8.75,-20.5 -4.518874,-5.0026 -11.928669,-6.15064 -18.25,-8.74996 6.611156,0.58347 13.502168,2.00651 19.5,0.75 3.607683,-6.72271 0.326106,-14.4296 -0.25,-21.75 z"
         style="fill:#ff0000;fill-rule:evenodd;stroke:none;stroke-width:1px;stroke-linecap:butt;stroke-linejoin:miter;stroke-opacity:1" />
    </g>
    <g
       transform="matrix(0.89386088,0,0,0.85533674,136.20109,151.73181)"
       id="g4487">
      <path
         style="fill:#ffcc00;fill-rule:evenodd;stroke:none;stroke-width:1px;stroke-linecap:butt;stroke-linejoin:miter;stroke-opacity:1"
         d="m 34.25,988.61214 c -10,4.88951 -20,1.606 -30,1.75 10.470033,4.49157 22.428211,5.26278 30.5,15.74996 -0.416227,18.4473 -9.959859,29.4268 -17.25,42.25 10.952754,-7.1778 18.406674,-21.3533 33.5,-20.25 9.437929,4.9072 10.830797,13.39 14.75,20.75 0.758612,-8.0083 -1.458081,-16.3472 4.75,-23.75 17.938686,-2.1735 31.09429,9.2051 45.25,17.75 -7.41606,-10.2621 -20.654849,-18.8605 -19.75,-31.5 3.827242,-12.74852 12.9665,-16.39074 21.25,-21.49996 -9.5,2.25072 -19,5.27707 -28.5,-1.5 5.086599,-25.21678 19.32004,-35.18883 29.75,-51.5 -17.16667,11.44376 -34.333333,31.78483 -51.5,32 -7.68687,-12.71998 -6.430477,-26.43365 -8.75,-39.75 -2.32311,14.64343 -2.802736,30.10619 -10.75,42.25 -13.083333,-9.14539 -26.166667,-23.95382 -39.25,-38.25 13.159069,18.67143 18.978445,34.43534 26,55.5 z"
         id="path4489"
         inkscape:connector-curvature="0"
         sodipodi:nodetypes="ccccccccccccccccc" />
      <path
         style="fill:#ff0000;fill-rule:evenodd;stroke:none;stroke-width:1px;stroke-linecap:butt;stroke-linejoin:miter;stroke-opacity:1"
         d="m 52.75,972.86214 c 2.574231,7.33515 4.497952,14.80041 10.25,21.5 9.024014,-5.87373 13.230132,-13.67461 19.25,-20.75 -4.452306,9.50025 -9.736399,13.08924 -13,26.74996 5.629697,7.0091 13.648803,11.0447 20.5,15 -9.588007,-2.4813 -18.45913,-7.8301 -29.25,-5.5 -7.17981,0.8261 -12.2541,7.2668 -17.5,13.25 2.949052,-6.8225 9.532168,-12.4337 8.75,-20.5 -4.518874,-5.0026 -11.928669,-6.15064 -18.25,-8.74996 6.611156,0.58347 13.502168,2.00651 19.5,0.75 3.607683,-6.72271 0.326106,-14.4296 -0.25,-21.75 z"
         id="path4491"
         inkscape:connector-curvature="0"
         sodipodi:nodetypes="ccccccccccc" />
    </g>
    <g
       id="g4493"
       transform="matrix(0.95830249,0,0,0.90958546,259.92721,94.832384)">
      <path
         sodipodi:nodetypes="ccccccccccccccccc"
         inkscape:connector-curvature="0"
         id="path4495"
         d="m 34.25,988.61214 c -10,4.88951 -20,1.606 -30,1.75 10.470033,4.49157 22.428211,5.26278 30.5,15.74996 -0.416227,18.4473 -9.959859,29.4268 -17.25,42.25 10.952754,-7.1778 18.406674,-21.3533 33.5,-20.25 9.437929,4.9072 10.830797,13.39 14.75,20.75 0.758612,-8.0083 -1.458081,-16.3472 4.75,-23.75 17.938686,-2.1735 31.09429,9.2051 45.25,17.75 -7.41606,-10.2621 -20.654849,-18.8605 -19.75,-31.5 3.827242,-12.74852 12.9665,-16.39074 21.25,-21.49996 -9.5,2.25072 -19,5.27707 -28.5,-1.5 5.086599,-25.21678 19.32004,-35.18883 29.75,-51.5 -17.16667,11.44376 -34.333333,31.78483 -51.5,32 -7.68687,-12.71998 -6.430477,-26.43365 -8.75,-39.75 -2.32311,14.64343 -2.802736,30.10619 -10.75,42.25 -13.083333,-9.14539 -26.166667,-23.95382 -39.25,-38.25 13.159069,18.67143 18.978445,34.43534 26,55.5 z"
         style="fill:#ffcc00;fill-rule:evenodd;stroke:none;stroke-width:1px;stroke-linecap:butt;stroke-linejoin:miter;stroke-opacity:1" />
      <path
         sodipodi:nodetypes="ccccccccccc"
         inkscape:connector-curvature="0"
         id="path4497"
         d="m 52.75,972.86214 c 2.574231,7.33515 4.497952,14.80041 10.25,21.5 9.024014,-5.87373 13.230132,-13.67461 19.25,-20.75 -4.452306,9.50025 -9.736399,13.08924 -13,26.74996 5.629697,7.0091 13.648803,11.0447 20.5,15 -9.588007,-2.4813 -18.45913,-7.8301 -29.25,-5.5 -7.17981,0.8261 -12.2541,7.2668 -17.5,13.25 2.949052,-6.8225 9.532168,-12.4337 8.75,-20.5 -4.518874,-5.0026 -11.928669,-6.15064 -18.25,-8.74996 6.611156,0.58347 13.502168,2.00651 19.5,0.75 3.607683,-6.72271 0.326106,-14.4296 -0.25,-21.75 z"
         style="fill:#ff0000;fill-rule:evenodd;stroke:none;stroke-width:1px;stroke-linecap:butt;stroke-linejoin:miter;stroke-opacity:1" />
    </g>
    <g
       transform="translate(385.75,0)"
       id="g4501">
      <path
         style="fill:#ffcc00;fill-rule:evenodd;stroke:none;stroke-width:1px;stroke-linecap:butt;stroke-linejoin:miter;stroke-opacity:1"
         d="m 34.25,988.61214 c -10,4.88951 -20,1.606 -30,1.75 10.470033,4.49157 22.428211,5.26278 30.5,15.74996 -0.416227,18.4473 -9.959859,29.4268 -17.25,42.25 10.952754,-7.1778 18.406674,-21.3533 33.5,-20.25 9.437929,4.9072 10.830797,13.39 14.75,20.75 0.758612,-8.0083 -1.458081,-16.3472 4.75,-23.75 17.938686,-2.1735 31.09429,9.2051 45.25,17.75 -7.41606,-10.2621 -20.654849,-18.8605 -19.75,-31.5 3.827242,-12.74852 12.9665,-16.39074 21.25,-21.49996 -9.5,2.25072 -19,5.27707 -28.5,-1.5 5.086599,-25.21678 19.32004,-35.18883 29.75,-51.5 -17.16667,11.44376 -34.333333,31.78483 -51.5,32 -7.68687,-12.71998 -6.430477,-26.43365 -8.75,-39.75 -2.32311,14.64343 -2.802736,30.10619 -10.75,42.25 -13.083333,-9.14539 -26.166667,-23.95382 -39.25,-38.25 13.159069,18.67143 18.978445,34.43534 26,55.5 z"
         id="path4503"
         inkscape:connector-curvature="0"
         sodipodi:nodetypes="ccccccccccccccccc" />
      <path
         style="fill:#ff0000;fill-rule:evenodd;stroke:none;stroke-width:1px;stroke-linecap:butt;stroke-linejoin:miter;stroke-opacity:1"
         d="m 52.75,972.86214 c 2.574231,7.33515 4.497952,14.80041 10.25,21.5 9.024014,-5.87373 13.230132,-13.67461 19.25,-20.75 -4.452306,9.50025 -9.736399,13.08924 -13,26.74996 5.629697,7.0091 13.648803,11.0447 20.5,15 -9.588007,-2.4813 -18.45913,-7.8301 -29.25,-5.5 -7.17981,0.8261 -12.2541,7.2668 -17.5,13.25 2.949052,-6.8225 9.532168,-12.4337 8.75,-20.5 -4.518874,-5.0026 -11.928669,-6.15064 -18.25,-8.74996 6.611156,0.58347 13.502168,2.00651 19.5,0.75 3.607683,-6.72271 0.326106,-14.4296 -0.25,-21.75 z"
         id="path4505"
         inkscape:connector-curvature="0"
         sodipodi:nodetypes="ccccccccccc" />
    </g>
    <g
       transform="matrix(-0.81046586,0,0,0.77577194,889.69448,235.18431)"
       id="g4507">
      <path
         style="fill:#ffcc00;fill-rule:evenodd;stroke:none;stroke-width:1px;stroke-linecap:butt;stroke-linejoin:miter;stroke-opacity:1"
         d="m 34.25,988.61214 c -10,4.88951 -20,1.606 -30,1.75 10.470033,4.49157 22.428211,5.26278 30.5,15.74996 -0.416227,18.4473 -9.959859,29.4268 -17.25,42.25 10.952754,-7.1778 18.406674,-21.3533 33.5,-20.25 9.437929,4.9072 10.830797,13.39 14.75,20.75 0.758612,-8.0083 -1.458081,-16.3472 4.75,-23.75 17.938686,-2.1735 31.09429,9.2051 45.25,17.75 -7.41606,-10.2621 -20.654849,-18.8605 -19.75,-31.5 3.827242,-12.74852 12.9665,-16.39074 21.25,-21.49996 -9.5,2.25072 -19,5.27707 -28.5,-1.5 5.086599,-25.21678 19.32004,-35.18883 29.75,-51.5 -17.16667,11.44376 -34.333333,31.78483 -51.5,32 -7.68687,-12.71998 -6.430477,-26.43365 -8.75,-39.75 -2.32311,14.64343 -2.802736,30.10619 -10.75,42.25 -13.083333,-9.14539 -26.166667,-23.95382 -39.25,-38.25 13.159069,18.67143 18.978445,34.43534 26,55.5 z"
         id="path4509"
         inkscape:connector-curvature="0"
         sodipodi:nodetypes="ccccccccccccccccc" />
      <path
         style="fill:#ff0000;fill-rule:evenodd;stroke:none;stroke-width:1px;stroke-linecap:butt;stroke-linejoin:miter;stroke-opacity:1"
         d="m 52.75,972.86214 c 2.574231,7.33515 4.497952,14.80041 10.25,21.5 9.024014,-5.87373 13.230132,-13.67461 19.25,-20.75 -4.452306,9.50025 -9.736399,13.08924 -13,26.74996 5.629697,7.0091 13.648803,11.0447 20.5,15 -9.588007,-2.4813 -18.45913,-7.8301 -29.25,-5.5 -7.17981,0.8261 -12.2541,7.2668 -17.5,13.25 2.949052,-6.8225 9.532168,-12.4337 8.75,-20.5 -4.518874,-5.0026 -11.928669,-6.15064 -18.25,-8.74996 6.611156,0.58347 13.502168,2.00651 19.5,0.75 3.607683,-6.72271 0.326106,-14.4296 -0.25,-21.75 z"
         id="path4511"
         inkscape:connector-curvature="0"
         sodipodi:nodetypes="ccccccccccc" />
    </g>
    <g
       id="g4513"
       transform="matrix(-0.89386088,0,0,0.85533674,766.04891,151.73181)">
      <path
         sodipodi:nodetypes="ccccccccccccccccc"
         inkscape:connector-curvature="0"
         id="path4515"
         d="m 34.25,988.61214 c -10,4.88951 -20,1.606 -30,1.75 10.470033,4.49157 22.428211,5.26278 30.5,15.74996 -0.416227,18.4473 -9.959859,29.4268 -17.25,42.25 10.952754,-7.1778 18.406674,-21.3533 33.5,-20.25 9.437929,4.9072 10.830797,13.39 14.75,20.75 0.758612,-8.0083 -1.458081,-16.3472 4.75,-23.75 17.938686,-2.1735 31.09429,9.2051 45.25,17.75 -7.41606,-10.2621 -20.654849,-18.8605 -19.75,-31.5 3.827242,-12.74852 12.9665,-16.39074 21.25,-21.49996 -9.5,2.25072 -19,5.27707 -28.5,-1.5 5.086599,-25.21678 19.32004,-35.18883 29.75,-51.5 -17.16667,11.44376 -34.333333,31.78483 -51.5,32 -7.68687,-12.71998 -6.430477,-26.43365 -8.75,-39.75 -2.32311,14.64343 -2.802736,30.10619 -10.75,42.25 -13.083333,-9.14539 -26.166667,-23.95382 -39.25,-38.25 13.159069,18.67143 18.978445,34.43534 26,55.5 z"
         style="fill:#ffcc00;fill-rule:evenodd;stroke:none;stroke-width:1px;stroke-linecap:butt;stroke-linejoin:miter;stroke-opacity:1" />
      <path
         sodipodi:nodetypes="ccccccccccc"
         inkscape:connector-curvature="0"
         id="path4517"
         d="m 52.75,972.86214 c 2.574231,7.33515 4.497952,14.80041 10.25,21.5 9.024014,-5.87373 13.230132,-13.67461 19.25,-20.75 -4.452306,9.50025 -9.736399,13.08924 -13,26.74996 5.629697,7.0091 13.648803,11.0447 20.5,15 -9.588007,-2.4813 -18.45913,-7.8301 -29.25,-5.5 -7.17981,0.8261 -12.2541,7.2668 -17.5,13.25 2.949052,-6.8225 9.532168,-12.4337 8.75,-20.5 -4.518874,-5.0026 -11.928669,-6.15064 -18.25,-8.74996 6.611156,0.58347 13.502168,2.00651 19.5,0.75 3.607683,-6.72271 0.326106,-14.4296 -0.25,-21.75 z"
         style="fill:#ff0000;fill-rule:evenodd;stroke:none;stroke-width:1px;stroke-linecap:butt;stroke-linejoin:miter;stroke-opacity:1" />
    </g>
    <g
       transform="matrix(-0.95830249,0,0,0.90958546,642.32279,94.832384)"
       id="g4519">
      <path
         style="fill:#ffcc00;fill-rule:evenodd;stroke:none;stroke-width:1px;stroke-linecap:butt;stroke-linejoin:miter;stroke-opacity:1"
         d="m 34.25,988.61214 c -10,4.88951 -20,1.606 -30,1.75 10.470033,4.49157 22.428211,5.26278 30.5,15.74996 -0.416227,18.4473 -9.959859,29.4268 -17.25,42.25 10.952754,-7.1778 18.406674,-21.3533 33.5,-20.25 9.437929,4.9072 10.830797,13.39 14.75,20.75 0.758612,-8.0083 -1.458081,-16.3472 4.75,-23.75 17.938686,-2.1735 31.09429,9.2051 45.25,17.75 -7.41606,-10.2621 -20.654849,-18.8605 -19.75,-31.5 3.827242,-12.74852 12.9665,-16.39074 21.25,-21.49996 -9.5,2.25072 -19,5.27707 -28.5,-1.5 5.086599,-25.21678 19.32004,-35.18883 29.75,-51.5 -17.16667,11.44376 -34.333333,31.78483 -51.5,32 -7.68687,-12.71998 -6.430477,-26.43365 -8.75,-39.75 -2.32311,14.64343 -2.802736,30.10619 -10.75,42.25 -13.083333,-9.14539 -26.166667,-23.95382 -39.25,-38.25 13.159069,18.67143 18.978445,34.43534 26,55.5 z"
         id="path4521"
         inkscape:connector-curvature="0"
         sodipodi:nodetypes="ccccccccccccccccc" />
      <path
         style="fill:#ff0000;fill-rule:evenodd;stroke:none;stroke-width:1px;stroke-linecap:butt;stroke-linejoin:miter;stroke-opacity:1"
         d="m 52.75,972.86214 c 2.574231,7.33515 4.497952,14.80041 10.25,21.5 9.024014,-5.87373 13.230132,-13.67461 19.25,-20.75 -4.452306,9.50025 -9.736399,13.08924 -13,26.74996 5.629697,7.0091 13.648803,11.0447 20.5,15 -9.588007,-2.4813 -18.45913,-7.8301 -29.25,-5.5 -7.17981,0.8261 -12.2541,7.2668 -17.5,13.25 2.949052,-6.8225 9.532168,-12.4337 8.75,-20.5 -4.518874,-5.0026 -11.928669,-6.15064 -18.25,-8.74996 6.611156,0.58347 13.502168,2.00651 19.5,0.75 3.607683,-6.72271 0.326106,-14.4296 -0.25,-21.75 z"
         id="path4523"
         inkscape:connector-curvature="0"
         sodipodi:nodetypes="ccccccccccc" />
    </g>
  </g>
</svg>
