<?xml version="1.0" encoding="UTF-8" standalone="no"?>
<!-- Created with Inkscape (http://www.inkscape.org/) -->

<svg
   xmlns:dc="http://purl.org/dc/elements/1.1/"
   xmlns:cc="http://creativecommons.org/ns#"
   xmlns:rdf="http://www.w3.org/1999/02/22-rdf-syntax-ns#"
   xmlns:svg="http://www.w3.org/2000/svg"
   xmlns="http://www.w3.org/2000/svg"
   xmlns:xlink="http://www.w3.org/1999/xlink"
   xmlns:sodipodi="http://sodipodi.sourceforge.net/DTD/sodipodi-0.dtd"
   xmlns:inkscape="http://www.inkscape.org/namespaces/inkscape"
   width="256"
   height="128"
   viewBox="0 0 256 128"
   id="svg3343"
   version="1.1"
   inkscape:version="0.91 r13725"
   sodipodi:docname="emu_run_64x128_final.svg"
   inkscape:export-filename="C:\dev\kelly\libgdx\kelly\resources\raw\actors\enemies\sheets\emu\emu_run_64x128.png"
   inkscape:export-xdpi="90"
   inkscape:export-ydpi="90">
  <defs
     id="defs3345">
    <linearGradient
       inkscape:collect="always"
       id="linearGradient4258">
      <stop
         id="stop4262"
         offset="0"
         style="stop-color:#ff5354;stop-opacity:1" />
      <stop
         id="stop4260"
         offset="1"
         style="stop-color:#ffe1bd;stop-opacity:1;" />
    </linearGradient>
    <linearGradient
       inkscape:collect="always"
       xlink:href="#linearGradient4258"
       id="linearGradient4600"
       x1="110.35714"
       y1="872.18359"
       x2="101.17967"
       y2="866.56177"
       gradientUnits="userSpaceOnUse"
       gradientTransform="matrix(1.0709502,0,0,1.7196015,124.96384,-629.34808)" />
  </defs>
  <sodipodi:namedview
     id="base"
     pagecolor="#ffffff"
     bordercolor="#666666"
     borderopacity="1.0"
     inkscape:pageopacity="0.0"
     inkscape:pageshadow="2"
     inkscape:zoom="2.8061538"
     inkscape:cx="126.5"
     inkscape:cy="64"
     inkscape:document-units="px"
     inkscape:current-layer="layer1"
     showgrid="false"
     units="px"
     showborder="true"
     inkscape:window-width="1366"
     inkscape:window-height="705"
     inkscape:window-x="-8"
     inkscape:window-y="-8"
     inkscape:window-maximized="1"
     inkscape:showpageshadow="false"
     borderlayer="true" />
  <metadata
     id="metadata3348">
    <rdf:RDF>
      <cc:Work
         rdf:about="">
        <dc:format>image/svg+xml</dc:format>
        <dc:type
           rdf:resource="http://purl.org/dc/dcmitype/StillImage" />
        <dc:title></dc:title>
      </cc:Work>
    </rdf:RDF>
  </metadata>
  <g
     inkscape:label="Layer 1"
     inkscape:groupmode="layer"
     id="layer1"
     transform="translate(0,-924.36214)">
    <path
       sodipodi:nodetypes="sssss"
       inkscape:connector-curvature="0"
       id="path4167"
       d="m 50.035986,979.03488 c 3.152959,6.45916 -4.438815,-2.418 -8.41622,6.65529 -3.791328,8.64857 -12.114752,19.56133 -15.26768,13.10223 -3.152948,-6.45915 -0.407115,-16.11824 6.13301,-21.57411 6.540125,-5.45587 14.397923,-4.64255 17.55089,1.81659 z"
       style="opacity:1;fill:#784421;fill-opacity:1;stroke:none;stroke-width:0.5;stroke-linecap:round;stroke-miterlimit:4;stroke-dasharray:none;stroke-opacity:1"
       inkscape:transform-center-x="-8.5088177"
       inkscape:transform-center-y="-10.103254" />
    <path
       style="fill:#502d16;fill-opacity:1;fill-rule:evenodd;stroke:none;stroke-width:1px;stroke-linecap:butt;stroke-linejoin:miter;stroke-opacity:1"
       d="m 29.497033,931.48898 c 2.422795,-1.50989 3.068374,-2.60119 4.477087,-5.27735 -2.013078,8.28182 1.191203,9.78816 3.785493,5.4014 -1.780748,6.76336 -2.799969,7.50424 -1.565985,10.93057 -1.566258,-5.17219 -3.568768,-7.90083 -6.696595,-11.05462 z"
       id="path5147"
       inkscape:connector-curvature="0"
       sodipodi:nodetypes="ccccc" />
    <path
       sodipodi:nodetypes="cccccsssc"
       inkscape:connector-curvature="0"
       id="path5131"
       d="m 29.929517,1005.7142 2.359211,3.0891 c 1.035353,3.6133 -3.45077,4.5814 -5.249427,7.0502 -0.222767,0.3058 -3.252685,4.6531 -8.103322,6.7858 l -2.564521,-2.2946 c 2.265799,-5.6523 5.183841,-7.3511 5.424879,-7.639 l 3.266499,-3.9024 c 0.241198,-0.288 4.580679,-3.4631 4.866268,-3.0889 z"
       style="opacity:1;fill:#a05a2c;fill-opacity:1;stroke:none;stroke-width:0.5;stroke-linecap:round;stroke-miterlimit:4;stroke-dasharray:none;stroke-opacity:1"
       inkscape:transform-center-x="5.4376951"
       inkscape:transform-center-y="4.2476421" />
    <path
       sodipodi:nodetypes="sssssssss"
       inkscape:connector-curvature="0"
       id="path5133"
       d="m 17.969425,1018.7277 1.513267,1.0163 c 0.451597,0.3032 0.541159,1.3277 0.02451,2.129 -4.512425,7 -7.628972,14.9372 -11.2622997,22.5276 -0.4237126,0.8851 -1.1542075,1.3371 -1.6058051,1.0339 l -1.5132831,-1.0163 c -0.4515976,-0.3033 -0.6126634,-1.461 -0.1474615,-2.3166 3.9950949,-7.3474 8.1276034,-14.4972 11.3852064,-22.3401 0.376968,-0.9075 1.154223,-1.3373 1.605868,-1.0338 z"
       style="opacity:1;fill:#a05a2c;fill-opacity:1;stroke:none;stroke-width:0.5;stroke-linecap:round;stroke-miterlimit:4;stroke-dasharray:none;stroke-opacity:1"
       inkscape:transform-center-x="5.2212342"
       inkscape:transform-center-y="9.9197645" />
    <path
       sodipodi:nodetypes="csssscc"
       inkscape:connector-curvature="0"
       id="path5135"
       d="m 9.6645797,1040.177 c 0.1942039,0.2743 0.031622,0.7985 -0.3645043,1.1753 l -2.9945324,2.8485 c -0.3961126,0.3766 -0.8713158,0.4591 -1.0655203,0.1849 l -4.45094319,-6.2869 c -0.19420512,-0.2741 -0.031687,-0.7983 0.36443489,-1.175 3.6598087,-0.9927 4.3353014,4.6839 8.5110653,3.2532 z"
       style="opacity:1;fill:#a05a2c;fill-opacity:1;stroke:none;stroke-width:0.5;stroke-linecap:round;stroke-miterlimit:4;stroke-dasharray:none;stroke-opacity:1"
       inkscape:transform-center-x="12.980536"
       inkscape:transform-center-y="18.516952" />
    <path
       style="opacity:1;fill:#d38d5f;fill-opacity:1;stroke:none;stroke-width:0.5;stroke-linecap:round;stroke-miterlimit:4;stroke-dasharray:none;stroke-opacity:1"
       d="m 36.110916,941.43697 c -1.040622,7.15543 -4.767558,12.69549 -7.695178,7.04022 -2.124329,-4.10358 -5.617096,-5.30653 -4.967737,-10.04683 0.674881,-4.92661 3.812076,-8.0108 7.695177,-7.04021 3.489952,0.87226 5.656026,5.31408 4.967738,10.04682 z"
       id="path4391"
       inkscape:connector-curvature="0"
       sodipodi:nodetypes="sssss" />
    <g
       id="g5105"
       transform="matrix(0.49291702,0.45619727,-0.33725963,1.0024359,338.14142,-8.6729298)">
      <g
         transform="matrix(1.0210688,-0.62912541,0.5633049,1.1403777,-578.11747,-114.99669)"
         id="g5141">
        <ellipse
           style="opacity:1;fill:#008080;fill-opacity:1;stroke:none;stroke-width:1;stroke-miterlimit:4;stroke-dasharray:none;stroke-opacity:1"
           id="ellipse5254"
           cx="51.536671"
           cy="951.50146"
           rx="2.9163649"
           ry="1.8351251" />
        <ellipse
           ry="1.4552168"
           rx="2.080868"
           cy="951.50146"
           cx="51.427692"
           id="ellipse5256"
           style="opacity:1;fill:#000000;fill-opacity:1;stroke:none;stroke-width:1;stroke-miterlimit:4;stroke-dasharray:none;stroke-opacity:1" />
        <ellipse
           style="opacity:1;fill:#ffffff;fill-opacity:1;stroke:none;stroke-width:1;stroke-miterlimit:4;stroke-dasharray:none;stroke-opacity:1"
           id="ellipse5258"
           cx="50.991772"
           cy="951.15338"
           rx="0.62782985"
           ry="0.85369521" />
      </g>
    </g>
    <path
       style="fill:#ffcc00;fill-opacity:1;fill-rule:evenodd;stroke:none;stroke-width:1px;stroke-linecap:butt;stroke-linejoin:miter;stroke-opacity:1"
       d="m 24.729098,935.13161 c -5.067449,1.18871 -9.684915,4.38535 -13.847787,9.61062 4.91496,-0.45292 9.338666,-2.36159 15.213258,0.0291 -2.388624,-3.43871 -2.930011,-6.66204 -1.365471,-9.63982 z"
       id="path5112"
       inkscape:connector-curvature="0"
       sodipodi:nodetypes="cccc" />
    <ellipse
       style="opacity:1;fill:#000000;fill-opacity:1;stroke:none;stroke-width:0.5;stroke-linecap:round;stroke-miterlimit:4;stroke-dasharray:none;stroke-opacity:1"
       id="path5114"
       cx="170.533"
       cy="910.64319"
       rx="0.46014827"
       ry="1.04874"
       transform="matrix(0.97295086,0.23101219,-0.15762506,0.98749903,0,0)" />
    <path
       style="opacity:1;fill:#d38d5f;fill-opacity:1;stroke:none;stroke-width:0.5;stroke-linecap:round;stroke-miterlimit:4;stroke-dasharray:none;stroke-opacity:1"
       d="m 29.783731,947.61799 2.872312,0.68199 c 0.351494,0.0834 0.52246,0.58096 0.478286,1.12908 -1.103889,13.69753 -2.664483,27.20312 -6.355052,39.81352 -0.151189,0.5166 -0.439156,0.91129 -0.79065,0.82783 l -2.872312,-0.68199 c -0.351494,-0.0834 -0.577197,-0.59042 -0.478278,-1.12912 2.423606,-13.19867 6.091231,-26.10202 6.355052,-39.81351 0.01053,-0.54748 0.439148,-0.91126 0.790642,-0.8278 z"
       id="rect5116"
       inkscape:connector-curvature="0"
       sodipodi:nodetypes="sssssssss" />
    <path
       style="opacity:1;fill:#502d16;fill-opacity:1;stroke:none;stroke-width:0.5;stroke-linecap:round;stroke-miterlimit:4;stroke-dasharray:none;stroke-opacity:1"
       d="m 55.080151,1022.7978 c -3.543836,7.1406 -13.490054,-13.785 -25.883422,-11.1702 -10.876184,2.2948 -12.761398,-21.00733 -6.451343,-24.63582 5.19991,-2.99024 15.233826,-3.46438 23.255991,2.5491 9.880171,7.4061 13.180679,24.99192 9.078774,33.25692 z"
       id="path5119"
       inkscape:connector-curvature="0"
       sodipodi:nodetypes="sssss" />
    <ellipse
       ry="1.1445456"
       rx="0.77541745"
       cy="908.34387"
       cx="180.87384"
       id="ellipse5149"
       style="opacity:1;fill:#000000;fill-opacity:1;stroke:none;stroke-width:0.5;stroke-linecap:round;stroke-miterlimit:4;stroke-dasharray:none;stroke-opacity:1"
       transform="matrix(0.97295086,0.23101219,-0.15762506,0.98749903,0,0)" />
    <path
       style="opacity:1;fill:#a05a2c;fill-opacity:1;stroke:none;stroke-width:0.5;stroke-linecap:round;stroke-miterlimit:4;stroke-dasharray:none;stroke-opacity:1"
       d="m 57.558591,997.89594 c -0.83636,7.33196 -2.304934,-4.95891 -10.233915,-0.37148 -7.557934,4.37254 -19.938312,7.48474 -19.101981,0.15293 0.836385,-7.33204 8.081466,-13.2269 16.182335,-13.16654 8.100869,0.0604 13.989915,6.05303 13.153561,13.38509 z"
       id="path4164"
       inkscape:connector-curvature="0"
       sodipodi:nodetypes="sssss"
       inkscape:transform-center-x="-10.48154"
       inkscape:transform-center-y="-3.2736847" />
    <path
       inkscape:transform-center-y="4.2476114"
       inkscape:transform-center-x="6.3606858"
       style="opacity:1;fill:#d38d5f;fill-opacity:1;stroke:none;stroke-width:0.5;stroke-linecap:round;stroke-miterlimit:4;stroke-dasharray:none;stroke-opacity:1"
       d="m 30.83656,1010.0141 1.697685,-3.8737 c 2.300807,-2.1127 3.787921,4.0027 5.817985,6.0744 0.251426,0.2565 3.801053,3.7117 6.157375,10.1255 l -1.112581,4.0164 c -4.309294,-2.1449 -6.013347,-5.9274 -6.255841,-6.2127 l -3.286256,-3.8685 c -0.242608,-0.2856 -3.223789,-5.792 -3.018124,-6.2609 z"
       id="path4169"
       inkscape:connector-curvature="0"
       sodipodi:nodetypes="cccccsssc" />
    <path
       inkscape:transform-center-y="3.9364536"
       inkscape:transform-center-x="-9.0029485"
       style="opacity:1;fill:#d38d5f;fill-opacity:1;stroke:none;stroke-width:0.5;stroke-linecap:round;stroke-miterlimit:4;stroke-dasharray:none;stroke-opacity:1"
       d="m 42.019621,1024.7676 0.118765,-2.361 c 0.03538,-0.7046 0.675704,-1.1467 1.389249,-0.7007 6.233093,3.8951 12.575453,5.6126 18.87756,8.1363 0.734864,0.2942 1.296556,1.1385 1.261178,1.843 l -0.118762,2.3611 c -0.03546,0.7045 -0.737324,1.2848 -1.467925,0.9254 -6.273566,-3.0881 -12.467278,-6.4237 -18.79886,-8.361 -0.732657,-0.2241 -1.296725,-1.1385 -1.261206,-1.8431 z"
       id="path4171"
       inkscape:connector-curvature="0"
       sodipodi:nodetypes="sssssssss" />
    <path
       inkscape:transform-center-y="3.7060769"
       inkscape:transform-center-x="0.58755522"
       style="opacity:1;fill:#d38d5f;fill-opacity:1;stroke:none;stroke-width:0.5;stroke-linecap:round;stroke-miterlimit:4;stroke-dasharray:none;stroke-opacity:1"
       d="m 57.585285,1030.2798 c -0.0098,-0.3727 0.379196,-0.513 0.872264,-0.3146 l 3.727074,1.5001 c 0.492922,0.1985 0.897701,0.6582 0.90753,1.031 l 0.224446,8.5432 c 0.0099,0.3727 -0.379134,0.5131 -0.87213,0.3146 -3.29774,-3.3266 -0.945925,-7.4574 -4.859184,-11.0743 z"
       id="path4173"
       inkscape:connector-curvature="0"
       sodipodi:nodetypes="csssscc" />
    <path
       style="opacity:1;fill:#784421;fill-opacity:1;stroke:none;stroke-width:0.5;stroke-linecap:round;stroke-miterlimit:4;stroke-dasharray:none;stroke-opacity:1"
       d="m 117.7505,987.05617 c 1.28316,7.24741 -3.58462,-3.84362 -9.79069,3.42025 -5.91568,6.92387 -16.752055,14.43228 -18.03521,7.18499 -1.28314,-7.2474 3.905696,-15.49665 11.5896,-18.42518 7.6839,-2.92853 14.95313,0.57258 16.2363,7.81994 z"
       id="path4183"
       inkscape:connector-curvature="0"
       sodipodi:nodetypes="sssss" />
    <path
       sodipodi:nodetypes="ccccc"
       inkscape:connector-curvature="0"
       id="path4185"
       d="m 82.670228,932.09395 c 2.053564,-2.10537 2.461913,-3.33686 3.293548,-6.31105 -0.290118,8.58821 3.131827,9.21309 4.772526,4.26298 -0.370022,7.04946 -1.212613,8.03801 0.678782,11.04858 -2.566596,-4.62241 -5.065314,-6.75228 -8.744856,-9.00051 z"
       style="fill:#502d16;fill-opacity:1;fill-rule:evenodd;stroke:none;stroke-width:1px;stroke-linecap:butt;stroke-linejoin:miter;stroke-opacity:1"
       inkscape:transform-center-x="3.2305508"
       inkscape:transform-center-y="-50.531787" />
    <path
       inkscape:transform-center-y="7.5504522"
       inkscape:transform-center-x="0.95352054"
       style="opacity:1;fill:#a05a2c;fill-opacity:1;stroke:none;stroke-width:0.5;stroke-linecap:round;stroke-miterlimit:4;stroke-dasharray:none;stroke-opacity:1"
       d="m 91.178812,1002.2624 3.577599,0.3488 c 2.945192,1.7759 0.310136,6.0311 0.521017,9.2327 0.02611,0.3966 0.496184,5.9254 -1.691464,11.307 l -3.241198,0.3853 c -1.814292,-5.8609 -0.751482,-9.3971 -0.75361,-9.7953 l -0.02896,-5.3968 c -0.0021,-0.3984 1.18322,-6.1237 1.616461,-6.0812 z"
       id="path4187"
       inkscape:connector-curvature="0"
       sodipodi:nodetypes="cccccsssc" />
    <path
       inkscape:transform-center-y="11.253592"
       inkscape:transform-center-x="-2.2980057"
       style="opacity:1;fill:#a05a2c;fill-opacity:1;stroke:none;stroke-width:0.5;stroke-linecap:round;stroke-miterlimit:4;stroke-dasharray:none;stroke-opacity:1"
       d="m 90.508437,1021.1059 1.706847,-0.47 c 0.509333,-0.1404 1.197778,0.5251 1.31448,1.5109 1.020281,8.612 3.61478,16.7901 5.626603,25.129 0.234535,0.9724 -0.01521,1.8769 -0.524542,2.0172 l -1.706859,0.4701 c -0.509403,0.1403 -1.330375,-0.5641 -1.517149,-1.5484 -1.6037,-8.4511 -2.988285,-16.8692 -5.423966,-25.0916 -0.281831,-0.9514 0.01508,-1.877 0.524587,-2.0172 z"
       id="path4189"
       inkscape:connector-curvature="0"
       sodipodi:nodetypes="sssssssss" />
    <path
       inkscape:transform-center-y="22.998276"
       inkscape:transform-center-x="-1.0109517"
       style="opacity:1;fill:#a05a2c;fill-opacity:1;stroke:none;stroke-width:0.5;stroke-linecap:round;stroke-miterlimit:4;stroke-dasharray:none;stroke-opacity:1"
       d="m 98.62972,1045.8236 c 0.306653,0.043 0.509079,0.5488 0.453881,1.1339 l -0.417469,4.4234 c -0.05533,0.5851 -0.34666,1.0214 -0.653313,0.9783 l -7.029037,-0.9878 c -0.306584,-0.043 -0.509059,-0.5488 -0.45379,-1.1339 2.026126,-3.6172 5.969526,-0.073 8.099728,-4.4139 z"
       id="path4191"
       inkscape:connector-curvature="0"
       sodipodi:nodetypes="csssscc" />
    <path
       sodipodi:nodetypes="sssss"
       inkscape:connector-curvature="0"
       id="path4195"
       d="m 91.111579,940.03921 c 0.429268,7.23676 -2.081296,13.60656 -6.070112,8.87134 -2.894355,-3.43598 -6.535913,-3.68987 -6.85925,-8.47354 -0.336044,-4.97169 2.095508,-8.79665 6.070108,-8.87134 3.572176,-0.0672 6.575317,3.68702 6.859254,8.47354 z"
       style="opacity:1;fill:#d38d5f;fill-opacity:1;stroke:none;stroke-width:0.5;stroke-linecap:round;stroke-miterlimit:4;stroke-dasharray:none;stroke-opacity:1"
       inkscape:transform-center-x="5.617952"
       inkscape:transform-center-y="-42.916829" />
    <g
       transform="matrix(0.57163814,0.31458531,-0.12620264,1.0640878,193.5745,-63.878241)"
       id="g4197"
       inkscape:transform-center-x="9.0360408"
       inkscape:transform-center-y="-46.805214">
      <g
         id="g4199"
         transform="matrix(1.0210688,-0.62912541,0.5633049,1.1403777,-578.11747,-114.99669)">
        <ellipse
           ry="1.8351251"
           rx="2.9163649"
           cy="951.50146"
           cx="51.536671"
           id="ellipse4201"
           style="opacity:1;fill:#008080;fill-opacity:1;stroke:none;stroke-width:1;stroke-miterlimit:4;stroke-dasharray:none;stroke-opacity:1" />
        <ellipse
           style="opacity:1;fill:#000000;fill-opacity:1;stroke:none;stroke-width:1;stroke-miterlimit:4;stroke-dasharray:none;stroke-opacity:1"
           id="ellipse4203"
           cx="51.427692"
           cy="951.50146"
           rx="2.080868"
           ry="1.4552168" />
        <ellipse
           ry="0.85369521"
           rx="0.62782985"
           cy="951.15338"
           cx="50.991772"
           id="ellipse4205"
           style="opacity:1;fill:#ffffff;fill-opacity:1;stroke:none;stroke-width:1;stroke-miterlimit:4;stroke-dasharray:none;stroke-opacity:1" />
      </g>
    </g>
    <path
       sodipodi:nodetypes="cccc"
       inkscape:connector-curvature="0"
       id="path4207"
       d="m 78.764192,936.89042 c -4.692048,2.48696 -8.541529,6.80991 -11.53978,12.9878 4.691926,-1.73088 8.612397,-4.74953 14.811289,-3.96491 -3.017576,-2.71954 -4.19403,-5.71436 -3.271529,-9.02297 z"
       style="fill:#ffcc00;fill-opacity:1;fill-rule:evenodd;stroke:none;stroke-width:1px;stroke-linecap:butt;stroke-linejoin:miter;stroke-opacity:1"
       inkscape:transform-center-x="15.64315"
       inkscape:transform-center-y="-40.586187" />
    <ellipse
       transform="matrix(0.99952706,-0.03075157,0.04544995,0.99896662,0,0)"
       ry="1.0523448"
       rx="0.45733815"
       cy="942.96613"
       cx="34.346554"
       id="ellipse4209"
       style="opacity:1;fill:#000000;fill-opacity:1;stroke:none;stroke-width:0.5;stroke-linecap:round;stroke-miterlimit:4;stroke-dasharray:none;stroke-opacity:1"
       inkscape:transform-center-x="13.085136"
       inkscape:transform-center-y="-43.034994" />
    <path
       sodipodi:nodetypes="sssssssss"
       inkscape:connector-curvature="0"
       id="path4211"
       d="m 86.199638,947.71532 2.932748,-0.0903 c 0.358887,-0.0114 0.625533,0.42826 0.693003,0.97329 1.686096,13.62006 2.889052,27.17325 1.838729,40.4143 -0.04302,0.54243 -0.243737,1.00212 -0.602627,1.01316 l -2.932749,0.0903 c -0.358886,0.0114 -0.680708,-0.42309 -0.693003,-0.97332 -0.301227,-13.481 0.667731,-27.00112 -1.838727,-40.41429 -0.100084,-0.53557 0.243734,-1.00211 0.602626,-1.01313 z"
       style="opacity:1;fill:#d38d5f;fill-opacity:1;stroke:none;stroke-width:0.5;stroke-linecap:round;stroke-miterlimit:4;stroke-dasharray:none;stroke-opacity:1"
       inkscape:transform-center-x="1.4547393"
       inkscape:transform-center-y="-15.099921" />
    <path
       sodipodi:nodetypes="sssss"
       inkscape:connector-curvature="0"
       id="path4213"
       d="m 118.91158,1022.7978 c -3.54384,7.1406 -13.49005,-13.785 -25.883425,-11.1702 -10.876184,2.2948 -12.761398,-21.00733 -6.451343,-24.63582 5.19991,-2.99024 15.233828,-3.46438 23.255998,2.5491 9.88017,7.4061 13.18068,24.99192 9.07877,33.25692 z"
       style="opacity:1;fill:#502d16;fill-opacity:1;stroke:none;stroke-width:0.5;stroke-linecap:round;stroke-miterlimit:4;stroke-dasharray:none;stroke-opacity:1" />
    <ellipse
       transform="matrix(0.99952706,-0.03075157,0.04544995,0.99896662,0,0)"
       style="opacity:1;fill:#000000;fill-opacity:1;stroke:none;stroke-width:0.5;stroke-linecap:round;stroke-miterlimit:4;stroke-dasharray:none;stroke-opacity:1"
       id="ellipse4215"
       cx="44.624233"
       cy="940.65894"
       rx="0.77068198"
       ry="1.1484796"
       inkscape:transform-center-x="2.9171794"
       inkscape:transform-center-y="-45.655854" />
    <path
       sodipodi:nodetypes="sssss"
       inkscape:connector-curvature="0"
       id="path4217"
       d="m 120.42009,988.56264 c 1.28315,7.2473 -3.58463,-3.84364 -9.7907,3.42023 -5.91567,6.92389 -16.752049,14.43223 -18.035203,7.18501 -1.283141,-7.24743 3.905696,-15.49668 11.589603,-18.42521 7.6839,-2.92853 14.95313,0.57259 16.2363,7.81997 z"
       style="opacity:1;fill:#a05a2c;fill-opacity:1;stroke:none;stroke-width:0.5;stroke-linecap:round;stroke-miterlimit:4;stroke-dasharray:none;stroke-opacity:1" />
    <path
       sodipodi:nodetypes="cccccsssc"
       inkscape:connector-curvature="0"
       id="path4219"
       d="m 94.595647,1008.1691 3.314199,-2.1102 c 2.943774,-0.2674 1.155458,5.742 1.810914,8.7587 0.08125,0.3735 1.30984,5.51 0.09258,12.3246 l -2.901056,2.6041 c -2.502909,-4.5418 -2.044881,-8.7627 -2.10451,-9.1544 l -0.807097,-5.3087 c -0.05955,-0.392 0.19361,-6.8582 0.594944,-7.1136 z"
       style="opacity:1;fill:#d38d5f;fill-opacity:1;stroke:none;stroke-width:0.5;stroke-linecap:round;stroke-miterlimit:4;stroke-dasharray:none;stroke-opacity:1"
       inkscape:transform-center-x="0.083360832"
       inkscape:transform-center-y="8.9405669" />
    <path
       sodipodi:nodetypes="sssssssss"
       inkscape:connector-curvature="0"
       id="path4221"
       d="m 96.481881,1029.0043 0.11877,-2.3609 c 0.0354,-0.7047 0.6757,-1.1468 1.38924,-0.7008 6.233109,3.8952 12.575469,5.6126 18.877569,8.1363 0.73487,0.2942 1.29656,1.1385 1.26118,1.8431 l -0.11876,2.361 c -0.0355,0.7045 -0.73732,1.2848 -1.46792,0.9255 -6.27357,-3.0882 -12.46728,-6.4238 -18.798869,-8.3611 -0.73266,-0.2241 -1.29673,-1.1385 -1.26121,-1.8431 z"
       style="opacity:1;fill:#d38d5f;fill-opacity:1;stroke:none;stroke-width:0.5;stroke-linecap:round;stroke-miterlimit:4;stroke-dasharray:none;stroke-opacity:1"
       inkscape:transform-center-x="-19.420788"
       inkscape:transform-center-y="19.346173" />
    <path
       sodipodi:nodetypes="csssscc"
       inkscape:connector-curvature="0"
       id="path4223"
       d="m 112.4011,1033.5077 c -0.01,-0.3726 0.3792,-0.513 0.87227,-0.3145 l 3.72707,1.5001 c 0.49292,0.1984 0.8977,0.6581 0.90753,1.031 l 0.22445,8.5431 c 0.01,0.3728 -0.37914,0.5132 -0.87213,0.3147 -3.29774,-3.3267 -0.94593,-7.4575 -4.85919,-11.0744 z"
       style="opacity:1;fill:#d38d5f;fill-opacity:1;stroke:none;stroke-width:0.5;stroke-linecap:round;stroke-miterlimit:4;stroke-dasharray:none;stroke-opacity:1"
       inkscape:transform-center-x="-27.028736"
       inkscape:transform-center-y="26.70198" />
    <path
       sodipodi:nodetypes="sssss"
       inkscape:connector-curvature="0"
       id="path4225"
       d="m 182.78234,993.70088 c -0.31035,7.38532 -2.65116,-4.72813 -10.22643,0.58102 -7.22079,5.06059 -19.33793,9.3132 -19.02761,1.92794 0.31037,-7.3854 7.11071,-13.9341 15.18898,-14.6269 8.07826,-0.69282 14.3754,4.73257 14.06506,12.11794 z"
       style="opacity:1;fill:#784421;fill-opacity:1;stroke:none;stroke-width:0.5;stroke-linecap:round;stroke-miterlimit:4;stroke-dasharray:none;stroke-opacity:1"
       inkscape:transform-center-x="-9.3144808"
       inkscape:transform-center-y="-4.2629688" />
    <path
       inkscape:transform-center-y="-49.637947"
       inkscape:transform-center-x="-6.9740257"
       style="fill:#502d16;fill-opacity:1;fill-rule:evenodd;stroke:none;stroke-width:1px;stroke-linecap:butt;stroke-linejoin:miter;stroke-opacity:1"
       d="m 157.11574,931.47342 c 2.41664,-1.52268 3.0578,-2.61737 4.45565,-5.30094 -1.9795,8.29237 1.23086,9.78177 3.80734,5.38136 -1.75332,6.7727 -2.76952,7.51895 -1.52167,10.93872 -1.5872,-5.16386 -3.60075,-7.88191 -6.74132,-11.01914 z"
       id="path4227"
       inkscape:connector-curvature="0"
       sodipodi:nodetypes="ccccc" />
    <path
       sodipodi:nodetypes="cccccsssc"
       inkscape:connector-curvature="0"
       id="path4229"
       d="m 154.03802,1009.2731 2.98977,-2.2693 c 3.27352,-0.7032 3.53311,4.499 5.44483,6.8544 0.23679,0.2917 3.62103,4.2841 4.8452,10.0498 l -2.32605,2.6046 c -4.61722,-3.2969 -5.71483,-6.8192 -5.93373,-7.1293 l -2.96705,-4.2025 c -0.21893,-0.3103 -2.41505,-5.6326 -2.05287,-5.9071 z"
       style="opacity:1;fill:#a05a2c;fill-opacity:1;stroke:none;stroke-width:0.5;stroke-linecap:round;stroke-miterlimit:4;stroke-dasharray:none;stroke-opacity:1"
       inkscape:transform-center-x="-2.9820392"
       inkscape:transform-center-y="6.8119039" />
    <path
       sodipodi:nodetypes="sssssssss"
       inkscape:connector-curvature="0"
       id="path4231"
       d="m 163.6882,1025.1442 0.57686,-1.8927 c 0.17208,-0.5648 1.0349,-0.8656 1.82454,-0.4444 6.89854,3.6792 14.32896,5.6129 21.56262,8.1926 0.84345,0.3009 1.37498,1.03 1.20282,1.5947 l -0.57687,1.8926 c -0.17222,0.5649 -1.13542,0.9718 -1.96176,0.6187 -7.09564,-3.0322 -14.04838,-6.257 -21.42541,-8.3668 -0.85365,-0.2441 -1.37513,-1.0299 -1.2028,-1.5947 z"
       style="opacity:1;fill:#a05a2c;fill-opacity:1;stroke:none;stroke-width:0.5;stroke-linecap:round;stroke-miterlimit:4;stroke-dasharray:none;stroke-opacity:1"
       inkscape:transform-center-x="-10.806066"
       inkscape:transform-center-y="3.7383091" />
    <path
       sodipodi:nodetypes="csssscc"
       inkscape:connector-curvature="0"
       id="path4233"
       d="m 183.34327,1032.4158 c 0.0153,-0.3522 0.44167,-0.6202 0.95734,-0.6005 l 3.8962,0.1481 c 0.51521,0.019 0.91806,0.3189 0.90312,0.671 l -0.34331,8.0731 c -0.0152,0.3522 -0.44156,0.6203 -0.95725,0.6004 -3.31067,-2.0385 -0.50534,-6.7887 -4.4561,-8.8921 z"
       style="opacity:1;fill:#a05a2c;fill-opacity:1;stroke:none;stroke-width:0.5;stroke-linecap:round;stroke-miterlimit:4;stroke-dasharray:none;stroke-opacity:1"
       inkscape:transform-center-x="0.49351026"
       inkscape:transform-center-y="4.5288014" />
    <path
       inkscape:transform-center-y="-42.981753"
       inkscape:transform-center-x="-3.181928"
       style="opacity:1;fill:#d38d5f;fill-opacity:1;stroke:none;stroke-width:0.5;stroke-linecap:round;stroke-miterlimit:4;stroke-dasharray:none;stroke-opacity:1"
       d="m 163.76987,941.38638 c -1.01162,7.16085 -4.71607,12.72053 -7.66657,7.08077 -2.14094,-4.09233 -5.63855,-5.27683 -5.0084,-10.02049 0.65491,-4.93014 3.77957,-8.03084 7.66656,-7.08077 3.49345,0.85383 5.6775,5.28418 5.00841,10.02049 z"
       id="path4235"
       inkscape:connector-curvature="0"
       sodipodi:nodetypes="sssss" />
    <g
       inkscape:transform-center-y="-47.925102"
       inkscape:transform-center-x="-0.44440085"
       id="g4237"
       transform="matrix(0.49476057,0.45359051,-0.33319347,1.0042055,461.94665,-10.307631)">
      <g
         transform="matrix(1.0210688,-0.62912541,0.5633049,1.1403777,-578.11747,-114.99669)"
         id="g4239">
        <ellipse
           style="opacity:1;fill:#008080;fill-opacity:1;stroke:none;stroke-width:1;stroke-miterlimit:4;stroke-dasharray:none;stroke-opacity:1"
           id="ellipse4241"
           cx="51.536671"
           cy="951.50146"
           rx="2.9163649"
           ry="1.8351251" />
        <ellipse
           ry="1.4552168"
           rx="2.080868"
           cy="951.50146"
           cx="51.427692"
           id="ellipse4243"
           style="opacity:1;fill:#000000;fill-opacity:1;stroke:none;stroke-width:1;stroke-miterlimit:4;stroke-dasharray:none;stroke-opacity:1" />
        <ellipse
           style="opacity:1;fill:#ffffff;fill-opacity:1;stroke:none;stroke-width:1;stroke-miterlimit:4;stroke-dasharray:none;stroke-opacity:1"
           id="ellipse4245"
           cx="50.991772"
           cy="951.15338"
           rx="0.62782985"
           ry="0.85369521" />
      </g>
    </g>
    <path
       inkscape:transform-center-y="-43.987527"
       inkscape:transform-center-x="8.112676"
       style="fill:#ffcc00;fill-opacity:1;fill-rule:evenodd;stroke:none;stroke-width:1px;stroke-linecap:butt;stroke-linejoin:miter;stroke-opacity:1"
       d="m 152.36261,935.14118 c -5.06257,1.21544 -9.66704,4.43641 -13.80869,9.68361 4.91308,-0.47886 9.329,-2.41086 15.21322,-0.0512 -2.40254,-3.42606 -2.95698,-6.64649 -1.40453,-9.6325 z"
       id="path4247"
       inkscape:connector-curvature="0"
       sodipodi:nodetypes="cccc" />
    <ellipse
       inkscape:transform-center-y="-45.29406"
       inkscape:transform-center-x="4.2453585"
       style="opacity:1;fill:#000000;fill-opacity:1;stroke:none;stroke-width:0.5;stroke-linecap:round;stroke-miterlimit:4;stroke-dasharray:none;stroke-opacity:1"
       id="ellipse4249"
       cx="293.21722"
       cy="882.90448"
       rx="0.46002284"
       ry="1.0489376"
       transform="matrix(0.97414225,0.22593554,-0.15359242,0.98813429,0,0)" />
    <path
       inkscape:transform-center-y="-15.134068"
       inkscape:transform-center-x="-1.375002"
       style="opacity:1;fill:#d38d5f;fill-opacity:1;stroke:none;stroke-width:0.5;stroke-linecap:round;stroke-miterlimit:4;stroke-dasharray:none;stroke-opacity:1"
       d="m 157.4678,947.60074 2.87504,0.66681 c 0.35182,0.0816 0.52481,0.5782 0.48286,1.12656 -1.04837,13.70319 -2.55421,27.21689 -6.19364,39.84663 -0.14906,0.51739 -0.43546,0.9136 -0.78729,0.832 l -2.87504,-0.66682 c -0.35182,-0.0816 -0.57958,-0.58737 -0.48285,-1.12659 2.3701,-13.21133 5.98539,-26.1339 6.19364,-39.84662 0.008,-0.54754 0.43545,-0.91357 0.78728,-0.83197 z"
       id="path4251"
       inkscape:connector-curvature="0"
       sodipodi:nodetypes="sssssssss" />
    <path
       style="opacity:1;fill:#502d16;fill-opacity:1;stroke:none;stroke-width:0.5;stroke-linecap:round;stroke-miterlimit:4;stroke-dasharray:none;stroke-opacity:1"
       d="m 182.91158,1022.7978 c -3.54384,7.1406 -13.49005,-13.785 -25.88343,-11.1702 -10.87618,2.2948 -12.76139,-21.00733 -6.45134,-24.63582 5.19991,-2.99024 15.23383,-3.46438 23.256,2.5491 9.88017,7.4061 13.18068,24.99192 9.07877,33.25692 z"
       id="path4253"
       inkscape:connector-curvature="0"
       sodipodi:nodetypes="sssss" />
    <ellipse
       inkscape:transform-center-y="-45.23079"
       inkscape:transform-center-x="-6.1785596"
       ry="1.1447612"
       rx="0.77520603"
       cy="880.60474"
       cx="303.55524"
       id="ellipse4255"
       style="opacity:1;fill:#000000;fill-opacity:1;stroke:none;stroke-width:0.5;stroke-linecap:round;stroke-miterlimit:4;stroke-dasharray:none;stroke-opacity:1"
       transform="matrix(0.97414225,0.22593554,-0.15359242,0.98813429,0,0)" />
    <path
       style="opacity:1;fill:#a05a2c;fill-opacity:1;stroke:none;stroke-width:0.5;stroke-linecap:round;stroke-miterlimit:4;stroke-dasharray:none;stroke-opacity:1"
       d="m 179.61899,977.02263 c 4.11669,5.70923 -4.74679,-1.47046 -7.23417,8.2697 -2.37103,9.28436 -8.84498,21.72347 -12.96163,16.01437 -4.1167,-5.70938 -2.93298,-15.77377 2.64395,-22.47959 5.57691,-6.70583 13.43514,-7.51372 17.55185,-1.80448 z"
       id="path4257"
       inkscape:connector-curvature="0"
       sodipodi:nodetypes="sssss"
       inkscape:transform-center-x="-7.0684149"
       inkscape:transform-center-y="-5.7850738" />
    <path
       inkscape:transform-center-y="4.7491049"
       inkscape:transform-center-x="6.2626806"
       style="opacity:1;fill:#d38d5f;fill-opacity:1;stroke:none;stroke-width:0.5;stroke-linecap:round;stroke-miterlimit:4;stroke-dasharray:none;stroke-opacity:1"
       d="m 160.36233,1005.9931 3.37138,1.9886 c 1.82056,2.6537 -3.55706,4.2696 -5.39915,6.5588 -0.22807,0.2835 -3.30241,4.2884 -8.95307,6.8923 l -3.50416,-1.3228 c 1.93643,-4.8893 5.27299,-6.7837 5.52622,-7.0567 l 3.43289,-3.6988 c 0.2535,-0.2731 5.11738,-3.6021 5.52555,-3.3612 z"
       id="path4259"
       inkscape:connector-curvature="0"
       sodipodi:nodetypes="cccccsssc" />
    <path
       inkscape:transform-center-y="8.2960194"
       inkscape:transform-center-x="5.4178677"
       style="opacity:1;fill:#d38d5f;fill-opacity:1;stroke:none;stroke-width:0.5;stroke-linecap:round;stroke-miterlimit:4;stroke-dasharray:none;stroke-opacity:1"
       d="m 148.07117,1018.3961 1.98789,0.6674 c 0.59325,0.1993 0.8244,1.0122 0.28289,1.7031 -4.73773,6.045 -7.64182,12.7052 -11.22476,19.1377 -0.41777,0.7501 -1.26571,1.183 -1.8589,0.9839 l -1.98794,-0.6674 c -0.59317,-0.1993 -0.9316,-1.1086 -0.45683,-1.8417 4.0582,-6.2727 8.30944,-12.4008 11.3987,-18.9991 0.35743,-0.7635 1.26572,-1.1831 1.85895,-0.9839 z"
       id="path4261"
       inkscape:connector-curvature="0"
       sodipodi:nodetypes="sssssssss" />
    <path
       inkscape:transform-center-y="16.537809"
       inkscape:transform-center-x="12.659584"
       style="opacity:1;fill:#d38d5f;fill-opacity:1;stroke:none;stroke-width:0.5;stroke-linecap:round;stroke-miterlimit:4;stroke-dasharray:none;stroke-opacity:1"
       d="m 140.61758,1035.0694 c 0.32028,0.073 0.3518,0.5378 0.0705,1.041 l -2.12539,3.8024 c -0.28117,0.5029 -0.76532,0.8486 -1.08566,0.7748 l -7.34157,-1.688 c -0.32033,-0.073 -0.35184,-0.5378 -0.0707,-1.0407 3.58687,-2.911 6.57864,0.6399 10.55277,-2.8895 z"
       id="path4263"
       inkscape:connector-curvature="0"
       sodipodi:nodetypes="csssscc" />
    <path
       style="opacity:1;fill:#784421;fill-opacity:1;stroke:none;stroke-width:0.5;stroke-linecap:round;stroke-miterlimit:4;stroke-dasharray:none;stroke-opacity:1"
       d="m 245.7505,987.05617 c 1.28316,7.24741 -3.58462,-3.84362 -9.79069,3.42025 -5.91568,6.92387 -16.75205,14.43228 -18.03521,7.18499 -1.28314,-7.2474 3.9057,-15.49665 11.5896,-18.42518 7.6839,-2.92853 14.95313,0.57258 16.2363,7.81994 z"
       id="path4269"
       inkscape:connector-curvature="0"
       sodipodi:nodetypes="sssss" />
    <path
       sodipodi:nodetypes="ccccc"
       inkscape:connector-curvature="0"
       id="path4271"
       d="m 211.70859,931.9096 c 2.09508,-2.05139 2.52793,-3.27194 3.41877,-6.2237 -0.46163,8.57842 2.94695,9.29218 4.68612,4.38604 -0.51076,7.03801 -1.37288,8.00438 0.45787,11.06339 -2.47358,-4.68801 -4.9291,-6.88235 -8.56276,-9.22573 z"
       style="fill:#502d16;fill-opacity:1;fill-rule:evenodd;stroke:none;stroke-width:1px;stroke-linecap:butt;stroke-linejoin:miter;stroke-opacity:1"
       inkscape:transform-center-x="2.2832393"
       inkscape:transform-center-y="-50.559852" />
    <path
       inkscape:transform-center-y="6.5733843"
       inkscape:transform-center-x="2.3807318"
       style="opacity:1;fill:#a05a2c;fill-opacity:1;stroke:none;stroke-width:0.5;stroke-linecap:round;stroke-miterlimit:4;stroke-dasharray:none;stroke-opacity:1"
       d="m 220.8114,1007.4504 3.11371,2.0407 c 2.01234,3.0293 -1.95098,5.6162 -2.94477,8.6198 -0.12308,0.3721 -1.74319,5.6103 -5.71786,9.4335 l -3.08039,-1.2131 c 0.52452,-6.1871 2.79657,-8.88 2.94202,-9.242 l 1.97109,-4.9058 c 0.14563,-0.362 3.33885,-4.9801 3.71578,-4.7327 z"
       id="path4273"
       inkscape:connector-curvature="0"
       sodipodi:nodetypes="cccccsssc" />
    <path
       inkscape:transform-center-y="25.856763"
       inkscape:transform-center-x="-10.805904"
       style="opacity:1;fill:#a05a2c;fill-opacity:1;stroke:none;stroke-width:0.5;stroke-linecap:round;stroke-miterlimit:4;stroke-dasharray:none;stroke-opacity:1"
       d="m 212.4267,1025.428 1.23849,-1.4205 c 0.36954,-0.424 1.2614,-0.2683 1.81311,0.5018 4.82025,6.7274 10.78265,12.1448 16.32237,18.047 0.64588,0.6883 0.8481,1.6082 0.47854,2.0321 l -1.23853,1.4204 c -0.36966,0.4239 -1.39226,0.3143 -2.0029,-0.4126 -5.24355,-6.2418 -10.28523,-12.5865 -16.13255,-18.1362 -0.67665,-0.6421 -0.84829,-1.6082 -0.47853,-2.032 z"
       id="path4275"
       inkscape:connector-curvature="0"
       sodipodi:nodetypes="sssssssss" />
    <path
       inkscape:transform-center-y="37.617239"
       inkscape:transform-center-x="-18.40283"
       style="opacity:1;fill:#a05a2c;fill-opacity:1;stroke:none;stroke-width:0.5;stroke-linecap:round;stroke-miterlimit:4;stroke-dasharray:none;stroke-opacity:1"
       d="m 226.7054,1040.1724 c 0.14751,-0.3098 0.63339,-0.3407 1.09074,-0.067 l 3.45523,2.0604 c 0.45695,0.2723 0.70625,0.7414 0.55913,1.0513 l -3.37467,7.106 c -0.14741,0.3098 -0.6334,0.3407 -1.09066,0.067 -2.20971,-3.4746 2.12215,-6.3683 -0.63974,-10.2178 z"
       id="path4277"
       inkscape:connector-curvature="0"
       sodipodi:nodetypes="csssscc" />
    <path
       sodipodi:nodetypes="sssss"
       inkscape:connector-curvature="0"
       id="path4279"
       d="m 219.98901,940.07244 c 0.28458,7.24605 -2.35259,13.54888 -6.24576,8.71109 -2.82497,-3.5104 -6.46051,-3.85899 -6.68819,-8.64982 -0.23663,-4.97916 2.2707,-8.73984 6.24576,-8.71109 3.57259,0.0258 6.49995,3.85716 6.68819,8.64982 z"
       style="opacity:1;fill:#d38d5f;fill-opacity:1;stroke:none;stroke-width:0.5;stroke-linecap:round;stroke-miterlimit:4;stroke-dasharray:none;stroke-opacity:1"
       inkscape:transform-center-x="4.7483839"
       inkscape:transform-center-y="-43.017674" />
    <g
       transform="matrix(0.56520482,0.32937799,-0.14742794,1.0605273,342.48134,-60.917872)"
       id="g4281"
       inkscape:transform-center-x="8.0986201"
       inkscape:transform-center-y="-47.028172">
      <g
         id="g4283"
         transform="matrix(1.0210688,-0.62912541,0.5633049,1.1403777,-578.11747,-114.99669)">
        <ellipse
           ry="1.8351251"
           rx="2.9163649"
           cy="951.50146"
           cx="51.536671"
           id="ellipse4285"
           style="opacity:1;fill:#008080;fill-opacity:1;stroke:none;stroke-width:1;stroke-miterlimit:4;stroke-dasharray:none;stroke-opacity:1" />
        <ellipse
           style="opacity:1;fill:#000000;fill-opacity:1;stroke:none;stroke-width:1;stroke-miterlimit:4;stroke-dasharray:none;stroke-opacity:1"
           id="ellipse4287"
           cx="51.427692"
           cy="951.50146"
           rx="2.080868"
           ry="1.4552168" />
        <ellipse
           ry="0.85369521"
           rx="0.62782985"
           cy="951.15338"
           cx="50.991772"
           id="ellipse4289"
           style="opacity:1;fill:#ffffff;fill-opacity:1;stroke:none;stroke-width:1;stroke-miterlimit:4;stroke-dasharray:none;stroke-opacity:1" />
      </g>
    </g>
    <path
       sodipodi:nodetypes="cccc"
       inkscape:connector-curvature="0"
       id="path4291"
       d="m 207.70773,936.60319 c -4.7405,2.36422 -8.67535,6.58588 -11.79624,12.68414 4.72529,-1.60834 8.70505,-4.52419 14.88665,-3.5785 -2.96247,-2.79737 -4.07878,-5.82201 -3.09043,-9.10576 z"
       style="fill:#ffcc00;fill-opacity:1;fill-rule:evenodd;stroke:none;stroke-width:1px;stroke-linecap:butt;stroke-linejoin:miter;stroke-opacity:1"
       inkscape:transform-center-x="14.918391"
       inkscape:transform-center-y="-41.025268" />
    <ellipse
       transform="matrix(0.99998879,-0.00473565,0.02547554,0.99967545,0,0)"
       ry="1.0525701"
       rx="0.45728913"
       cy="941.77411"
       cx="182.06104"
       id="ellipse4293"
       style="opacity:1;fill:#000000;fill-opacity:1;stroke:none;stroke-width:0.5;stroke-linecap:round;stroke-miterlimit:4;stroke-dasharray:none;stroke-opacity:1"
       inkscape:transform-center-x="12.22201"
       inkscape:transform-center-y="-43.364259" />
    <path
       sodipodi:nodetypes="sssssssss"
       inkscape:connector-curvature="0"
       id="path4295"
       d="m 214.925,947.61873 2.93378,-0.0139 c 0.35901,-10e-4 0.61682,0.44442 0.67338,0.99106 1.41356,13.6604 2.34544,27.24135 1.03086,40.45163 -0.0538,0.54118 -0.2637,0.99553 -0.62272,0.99723 l -2.93378,0.0139 c -0.35901,0.001 -0.67207,-0.44069 -0.67338,-0.99109 -0.0318,-13.48535 1.20699,-26.97675 -1.03085,-40.45164 -0.0897,-0.53795 0.26369,-0.9955 0.62271,-0.9972 z"
       style="opacity:1;fill:#d38d5f;fill-opacity:1;stroke:none;stroke-width:0.5;stroke-linecap:round;stroke-miterlimit:4;stroke-dasharray:none;stroke-opacity:1"
       inkscape:transform-center-x="1.0320059"
       inkscape:transform-center-y="-15.138727" />
    <path
       sodipodi:nodetypes="sssss"
       inkscape:connector-curvature="0"
       id="path4297"
       d="m 246.91158,1022.7978 c -3.54384,7.1406 -13.49005,-13.785 -25.88343,-11.1702 -10.87618,2.2948 -12.76139,-21.00733 -6.45134,-24.63582 5.19991,-2.99024 15.23383,-3.46438 23.256,2.5491 9.88017,7.4061 13.18068,24.99192 9.07877,33.25692 z"
       style="opacity:1;fill:#502d16;fill-opacity:1;stroke:none;stroke-width:0.5;stroke-linecap:round;stroke-miterlimit:4;stroke-dasharray:none;stroke-opacity:1" />
    <ellipse
       transform="matrix(0.99998879,-0.00473565,0.02547554,0.99967545,0,0)"
       style="opacity:1;fill:#000000;fill-opacity:1;stroke:none;stroke-width:0.5;stroke-linecap:round;stroke-miterlimit:4;stroke-dasharray:none;stroke-opacity:1"
       id="ellipse4299"
       cx="192.33762"
       cy="939.46637"
       rx="0.77059937"
       ry="1.1487256"
       inkscape:transform-center-x="2.0043354"
       inkscape:transform-center-y="-45.719914" />
    <path
       sodipodi:nodetypes="sssss"
       inkscape:connector-curvature="0"
       id="path4301"
       d="m 248.42009,988.56264 c 1.28315,7.2473 -3.58463,-3.84364 -9.7907,3.42023 -5.91567,6.92389 -16.75205,14.43223 -18.0352,7.18501 -1.28314,-7.24743 3.90569,-15.49668 11.5896,-18.42521 7.6839,-2.92853 14.95313,0.57259 16.2363,7.81997 z"
       style="opacity:1;fill:#a05a2c;fill-opacity:1;stroke:none;stroke-width:0.5;stroke-linecap:round;stroke-miterlimit:4;stroke-dasharray:none;stroke-opacity:1" />
    <path
       sodipodi:nodetypes="cccccsssc"
       inkscape:connector-curvature="0"
       id="path4303"
       d="m 222.68772,1007.8405 3.49733,-1.6817 c 2.95173,0.1039 0.59544,5.8522 0.95633,8.9328 0.0447,0.3814 0.77119,5.6409 -1.09506,12.2615 l -3.13427,2.2244 c -2.05033,-4.8284 -1.18852,-8.9662 -1.21007,-9.363 l -0.29085,-5.3777 c -0.0215,-0.3971 0.853,-6.7924 1.27652,-6.9959 z"
       style="opacity:1;fill:#d38d5f;fill-opacity:1;stroke:none;stroke-width:0.5;stroke-linecap:round;stroke-miterlimit:4;stroke-dasharray:none;stroke-opacity:1"
       inkscape:transform-center-x="0.70179891"
       inkscape:transform-center-y="8.9104346" />
    <path
       sodipodi:nodetypes="sssssssss"
       inkscape:connector-curvature="0"
       id="path4305"
       d="m 223.24691,1026.4514 1.77572,-1.2189 c 0.52999,-0.3637 1.21085,-0.011 1.29021,0.9146 0.69408,8.0715 3.02588,15.0186 4.75147,22.3821 0.20124,0.8586 -0.0932,1.8641 -0.62308,2.2278 l -1.77574,1.2188 c -0.52995,0.3636 -1.34554,0.032 -1.49731,-0.8624 -1.30086,-7.6545 -2.37779,-15.3735 -4.54438,-22.4343 -0.25075,-0.8169 0.0931,-1.8641 0.62311,-2.2277 z"
       style="opacity:1;fill:#d38d5f;fill-opacity:1;stroke:none;stroke-width:0.5;stroke-linecap:round;stroke-miterlimit:4;stroke-dasharray:none;stroke-opacity:1"
       inkscape:transform-center-x="-1.707987"
       inkscape:transform-center-y="10.129579" />
    <path
       sodipodi:nodetypes="csssscc"
       inkscape:connector-curvature="0"
       id="path4307"
       d="m 230.06362,1045.7146 c 0.32623,0.018 0.41767,0.4725 0.20546,1.0173 l -1.60605,4.1211 c -0.21249,0.5451 -0.64623,0.969 -0.97258,0.9504 l -7.47993,-0.4226 c -0.32626,-0.018 -0.41771,-0.4725 -0.20559,-1.0171 3.16743,-3.4877 6.58883,-0.4842 10.05866,-4.6491 z"
       style="opacity:1;fill:#d38d5f;fill-opacity:1;stroke:none;stroke-width:0.5;stroke-linecap:round;stroke-miterlimit:4;stroke-dasharray:none;stroke-opacity:1"
       inkscape:transform-center-x="2.4890384"
       inkscape:transform-center-y="0.31051868" />
  </g>
</svg>
