<?xml version="1.0" encoding="UTF-8" standalone="no"?>
<!-- Created with Inkscape (http://www.inkscape.org/) -->

<svg
   xmlns:dc="http://purl.org/dc/elements/1.1/"
   xmlns:cc="http://creativecommons.org/ns#"
   xmlns:rdf="http://www.w3.org/1999/02/22-rdf-syntax-ns#"
   xmlns:svg="http://www.w3.org/2000/svg"
   xmlns="http://www.w3.org/2000/svg"
   xmlns:xlink="http://www.w3.org/1999/xlink"
   xmlns:sodipodi="http://sodipodi.sourceforge.net/DTD/sodipodi-0.dtd"
   xmlns:inkscape="http://www.inkscape.org/namespaces/inkscape"
   width="256"
   height="128"
   viewBox="0 0 256 128"
   id="svg3343"
   version="1.1"
   inkscape:version="0.91 r13725"
   sodipodi:docname="get_gun_64x128_final.svg"
   inkscape:export-filename="C:\dev\kelly\libgdx\kelly\resources\raw\actors\objects\sheets\get-gun\get_gun_64_128.png"
   inkscape:export-xdpi="90"
   inkscape:export-ydpi="90">
  <defs
     id="defs3345">
    <marker
       inkscape:isstock="true"
       style="overflow:visible"
       id="marker5712"
       refX="0"
       refY="0"
       orient="auto"
       inkscape:stockid="Arrow2Lend">
      <path
         inkscape:connector-curvature="0"
         transform="matrix(-1.1,0,0,-1.1,-1.1,0)"
         d="M 8.7185878,4.0337352 -2.2072895,0.01601326 8.7185884,-4.0017078 c -1.7454984,2.3720609 -1.7354408,5.6174519 -6e-7,8.035443 z"
         style="fill:#ff6600;fill-opacity:1;fill-rule:evenodd;stroke:none;stroke-width:0.625;stroke-linejoin:round;stroke-opacity:1"
         id="path5714" />
    </marker>
    <marker
       inkscape:isstock="true"
       style="overflow:visible"
       id="marker5688"
       refX="0"
       refY="0"
       orient="auto"
       inkscape:stockid="Arrow2Lend">
      <path
         inkscape:connector-curvature="0"
         transform="matrix(-1.1,0,0,-1.1,-1.1,0)"
         d="M 8.7185878,4.0337352 -2.2072895,0.01601326 8.7185884,-4.0017078 c -1.7454984,2.3720609 -1.7354408,5.6174519 -6e-7,8.035443 z"
         style="fill:#ff6600;fill-opacity:1;fill-rule:evenodd;stroke:none;stroke-width:0.625;stroke-linejoin:round;stroke-opacity:1"
         id="path5690" />
    </marker>
    <marker
       inkscape:stockid="Arrow2Lend"
       orient="auto"
       refY="0"
       refX="0"
       id="Arrow2Lend"
       style="overflow:visible"
       inkscape:isstock="true"
       inkscape:collect="always">
      <path
         id="path5406"
         style="fill:#ff6600;fill-opacity:1;fill-rule:evenodd;stroke:none;stroke-width:0.625;stroke-linejoin:round;stroke-opacity:1"
         d="M 8.7185878,4.0337352 -2.2072895,0.01601326 8.7185884,-4.0017078 c -1.7454984,2.3720609 -1.7354408,5.6174519 -6e-7,8.035443 z"
         transform="matrix(-1.1,0,0,-1.1,-1.1,0)"
         inkscape:connector-curvature="0" />
    </marker>
    <marker
       inkscape:stockid="Arrow2Lstart"
       orient="auto"
       refY="0"
       refX="0"
       id="Arrow2Lstart"
       style="overflow:visible"
       inkscape:isstock="true">
      <path
         id="path5403"
         style="fill:#000000;fill-opacity:1;fill-rule:evenodd;stroke:#000000;stroke-width:0.625;stroke-linejoin:round;stroke-opacity:1"
         d="M 8.7185878,4.0337352 -2.2072895,0.01601326 8.7185884,-4.0017078 c -1.7454984,2.3720609 -1.7354408,5.6174519 -6e-7,8.035443 z"
         transform="matrix(1.1,0,0,1.1,1.1,0)"
         inkscape:connector-curvature="0" />
    </marker>
    <linearGradient
       inkscape:collect="always"
       id="linearGradient4258">
      <stop
         id="stop4262"
         offset="0"
         style="stop-color:#ff5354;stop-opacity:1" />
      <stop
         id="stop4260"
         offset="1"
         style="stop-color:#ffe1bd;stop-opacity:1;" />
    </linearGradient>
    <linearGradient
       inkscape:collect="always"
       xlink:href="#linearGradient4258"
       id="linearGradient4600"
       x1="110.35714"
       y1="872.18359"
       x2="101.17967"
       y2="866.56177"
       gradientUnits="userSpaceOnUse"
       gradientTransform="matrix(1.0709502,0,0,1.7196015,124.96384,-629.34808)" />
  </defs>
  <sodipodi:namedview
     id="base"
     pagecolor="#ffffff"
     bordercolor="#666666"
     borderopacity="1.0"
     inkscape:pageopacity="0.0"
     inkscape:pageshadow="2"
     inkscape:zoom="3.578125"
     inkscape:cx="112.42002"
     inkscape:cy="64"
     inkscape:document-units="px"
     inkscape:current-layer="layer1"
     showgrid="false"
     units="px"
     showborder="true"
     inkscape:window-width="1366"
     inkscape:window-height="705"
     inkscape:window-x="-8"
     inkscape:window-y="-8"
     inkscape:window-maximized="1"
     inkscape:showpageshadow="false"
     borderlayer="true"
     showguides="false" />
  <metadata
     id="metadata3348">
    <rdf:RDF>
      <cc:Work
         rdf:about="">
        <dc:format>image/svg+xml</dc:format>
        <dc:type
           rdf:resource="http://purl.org/dc/dcmitype/StillImage" />
        <dc:title></dc:title>
      </cc:Work>
    </rdf:RDF>
  </metadata>
  <g
     inkscape:label="Layer 1"
     inkscape:groupmode="layer"
     id="layer1"
     transform="translate(0,-924.36214)">
    <path
       style="fill:#ff6600;fill-rule:evenodd;stroke:none;stroke-width:2;stroke-linecap:butt;stroke-linejoin:miter;stroke-miterlimit:4;stroke-dasharray:none;stroke-opacity:1;marker-end:url(#marker5688)"
       d="m 33.325944,948.73977 -0.353553,20.15255"
       id="path5379"
       inkscape:connector-curvature="0" />
    <path
       inkscape:connector-curvature="0"
       id="path5686"
       d="m 97.325944,952.73977 -0.353553,20.15255"
       style="fill:#ff6600;fill-rule:evenodd;stroke:none;stroke-width:2;stroke-linecap:butt;stroke-linejoin:miter;stroke-miterlimit:4;stroke-dasharray:none;stroke-opacity:1;marker-end:url(#Arrow2Lend)" />
    <path
       style="fill:#ff6600;fill-rule:evenodd;stroke:none;stroke-width:2;stroke-linecap:butt;stroke-linejoin:miter;stroke-miterlimit:4;stroke-dasharray:none;stroke-opacity:1;marker-end:url(#marker5712)"
       d="m 161.32594,956.73977 -0.35355,20.15255"
       id="path5700"
       inkscape:connector-curvature="0" />
    <path
       inkscape:connector-curvature="0"
       id="path5710"
       d="m 225.32594,952.73977 -0.35355,20.15255"
       style="fill:#ff6600;fill-rule:evenodd;stroke:none;stroke-width:2;stroke-linecap:butt;stroke-linejoin:miter;stroke-miterlimit:4;stroke-dasharray:none;stroke-opacity:1;marker-end:url(#Arrow2Lend)" />
    <g
       id="g5119"
       transform="translate(4.6043064,15.572052)">
      <path
         sodipodi:nodetypes="ssssscssccccc"
         inkscape:connector-curvature="0"
         id="path5356"
         d="m 25.91613,975.89799 c -1.918039,5.8e-4 -5.170483,0.5241 -8.829653,0.5859 -5.934394,0.10022 -10.611383,-0.34108 -10.640796,0.19184 -0.303151,5.49221 -2.202912,10.78997 0,14.86007 1.131867,2.0913 5.332037,-8.60969 11.102379,-4.78224 5.230903,3.46964 5.153614,-5.36877 5.227675,-5.41655 1.858393,-1.1995 4.891405,-1.57766 4.950183,-4.66128 0.01125,-0.59059 -0.658964,-0.77809 -1.809788,-0.77774 z m -6.792458,5.96616 c 0.554021,4.8e-4 2.076585,0.95912 2.076621,1.84746 -3.7e-5,0.88834 -0.915789,2.50257 -1.469809,2.50305 -0.55455,7.1e-4 -4.038406,-1.61387 -4.038442,-2.50305 3.6e-5,-0.88919 2.877081,-1.84818 3.43163,-1.84746 z"
         style="opacity:1;fill:#803300;fill-opacity:1;stroke:none;stroke-width:3;stroke-linecap:round;stroke-miterlimit:4;stroke-dasharray:none;stroke-opacity:1" />
      <g
         transform="matrix(0.42036796,0,0,0.88489945,-3.232847,180.53343)"
         id="g5358">
        <g
           transform="translate(1.2166047,0.48664187)"
           id="g5360">
          <g
             id="g5362">
            <rect
               ry="0.21614499"
               rx="108.71619"
               y="894.90881"
               x="26.990738"
               height="5.6574845"
               width="90.534164"
               id="rect5364"
               style="opacity:1;fill:#666666;fill-opacity:1;stroke:none;stroke-width:3;stroke-linecap:round;stroke-miterlimit:4;stroke-dasharray:none;stroke-opacity:1" />
            <ellipse
               ry="2.8590209"
               rx="2.0287771"
               cy="897.67084"
               cx="117.92844"
               id="ellipse5366"
               style="opacity:1;fill:#000000;fill-opacity:1;stroke:none;stroke-width:3;stroke-linecap:round;stroke-miterlimit:4;stroke-dasharray:none;stroke-opacity:1" />
          </g>
          <g
             transform="translate(1.824907,-0.24332094)"
             id="g5368">
            <rect
               style="opacity:1;fill:#808080;fill-opacity:1;stroke:none;stroke-width:3;stroke-linecap:round;stroke-miterlimit:4;stroke-dasharray:none;stroke-opacity:1"
               id="rect5370"
               width="88.97821"
               height="5.6574845"
               x="24.679188"
               y="896.00378"
               rx="106.84775"
               ry="0.21614499" />
            <ellipse
               style="opacity:1;fill:#000000;fill-opacity:1;stroke:none;stroke-width:3;stroke-linecap:round;stroke-miterlimit:4;stroke-dasharray:none;stroke-opacity:1"
               id="ellipse5372"
               cx="114.05669"
               cy="898.76581"
               rx="2.0073977"
               ry="2.8590209" />
          </g>
        </g>
      </g>
    </g>
    <g
       transform="translate(68.604306,15.572052)"
       id="g5130">
      <path
         style="opacity:1;fill:#803300;fill-opacity:1;stroke:none;stroke-width:3;stroke-linecap:round;stroke-miterlimit:4;stroke-dasharray:none;stroke-opacity:1"
         d="m 25.91613,975.89799 c -1.918039,5.8e-4 -5.170483,0.5241 -8.829653,0.5859 -5.934394,0.10022 -10.611383,-0.34108 -10.640796,0.19184 -0.303151,5.49221 -2.202912,10.78997 0,14.86007 1.131867,2.0913 5.332037,-8.60969 11.102379,-4.78224 5.230903,3.46964 5.153614,-5.36877 5.227675,-5.41655 1.858393,-1.1995 4.891405,-1.57766 4.950183,-4.66128 0.01125,-0.59059 -0.658964,-0.77809 -1.809788,-0.77774 z m -6.792458,5.96616 c 0.554021,4.8e-4 2.076585,0.95912 2.076621,1.84746 -3.7e-5,0.88834 -0.915789,2.50257 -1.469809,2.50305 -0.55455,7.1e-4 -4.038406,-1.61387 -4.038442,-2.50305 3.6e-5,-0.88919 2.877081,-1.84818 3.43163,-1.84746 z"
         id="path5132"
         inkscape:connector-curvature="0"
         sodipodi:nodetypes="ssssscssccccc" />
      <g
         id="g5134"
         transform="matrix(0.42036796,0,0,0.88489945,-3.232847,180.53343)">
        <g
           id="g5136"
           transform="translate(1.2166047,0.48664187)">
          <g
             id="g5138">
            <rect
               style="opacity:1;fill:#666666;fill-opacity:1;stroke:none;stroke-width:3;stroke-linecap:round;stroke-miterlimit:4;stroke-dasharray:none;stroke-opacity:1"
               id="rect5140"
               width="90.534164"
               height="5.6574845"
               x="26.990738"
               y="894.90881"
               rx="108.71619"
               ry="0.21614499" />
            <ellipse
               style="opacity:1;fill:#000000;fill-opacity:1;stroke:none;stroke-width:3;stroke-linecap:round;stroke-miterlimit:4;stroke-dasharray:none;stroke-opacity:1"
               id="ellipse5142"
               cx="117.92844"
               cy="897.67084"
               rx="2.0287771"
               ry="2.8590209" />
          </g>
          <g
             id="g5144"
             transform="translate(1.824907,-0.24332094)">
            <rect
               ry="0.21614499"
               rx="106.84775"
               y="896.00378"
               x="24.679188"
               height="5.6574845"
               width="88.97821"
               id="rect5146"
               style="opacity:1;fill:#808080;fill-opacity:1;stroke:none;stroke-width:3;stroke-linecap:round;stroke-miterlimit:4;stroke-dasharray:none;stroke-opacity:1" />
            <ellipse
               ry="2.8590209"
               rx="2.0073977"
               cy="898.76581"
               cx="114.05669"
               id="ellipse5148"
               style="opacity:1;fill:#000000;fill-opacity:1;stroke:none;stroke-width:3;stroke-linecap:round;stroke-miterlimit:4;stroke-dasharray:none;stroke-opacity:1" />
          </g>
        </g>
      </g>
    </g>
    <g
       id="g5150"
       transform="translate(132.60431,15.572052)">
      <path
         sodipodi:nodetypes="ssssscssccccc"
         inkscape:connector-curvature="0"
         id="path5152"
         d="m 25.91613,975.89799 c -1.918039,5.8e-4 -5.170483,0.5241 -8.829653,0.5859 -5.934394,0.10022 -10.611383,-0.34108 -10.640796,0.19184 -0.303151,5.49221 -2.202912,10.78997 0,14.86007 1.131867,2.0913 5.332037,-8.60969 11.102379,-4.78224 5.230903,3.46964 5.153614,-5.36877 5.227675,-5.41655 1.858393,-1.1995 4.891405,-1.57766 4.950183,-4.66128 0.01125,-0.59059 -0.658964,-0.77809 -1.809788,-0.77774 z m -6.792458,5.96616 c 0.554021,4.8e-4 2.076585,0.95912 2.076621,1.84746 -3.7e-5,0.88834 -0.915789,2.50257 -1.469809,2.50305 -0.55455,7.1e-4 -4.038406,-1.61387 -4.038442,-2.50305 3.6e-5,-0.88919 2.877081,-1.84818 3.43163,-1.84746 z"
         style="opacity:1;fill:#803300;fill-opacity:1;stroke:none;stroke-width:3;stroke-linecap:round;stroke-miterlimit:4;stroke-dasharray:none;stroke-opacity:1" />
      <g
         transform="matrix(0.42036796,0,0,0.88489945,-3.232847,180.53343)"
         id="g5154">
        <g
           transform="translate(1.2166047,0.48664187)"
           id="g5156">
          <g
             id="g5158">
            <rect
               ry="0.21614499"
               rx="108.71619"
               y="894.90881"
               x="26.990738"
               height="5.6574845"
               width="90.534164"
               id="rect5160"
               style="opacity:1;fill:#666666;fill-opacity:1;stroke:none;stroke-width:3;stroke-linecap:round;stroke-miterlimit:4;stroke-dasharray:none;stroke-opacity:1" />
            <ellipse
               ry="2.8590209"
               rx="2.0287771"
               cy="897.67084"
               cx="117.92844"
               id="ellipse5162"
               style="opacity:1;fill:#000000;fill-opacity:1;stroke:none;stroke-width:3;stroke-linecap:round;stroke-miterlimit:4;stroke-dasharray:none;stroke-opacity:1" />
          </g>
          <g
             transform="translate(1.824907,-0.24332094)"
             id="g5164">
            <rect
               style="opacity:1;fill:#808080;fill-opacity:1;stroke:none;stroke-width:3;stroke-linecap:round;stroke-miterlimit:4;stroke-dasharray:none;stroke-opacity:1"
               id="rect5166"
               width="88.97821"
               height="5.6574845"
               x="24.679188"
               y="896.00378"
               rx="106.84775"
               ry="0.21614499" />
            <ellipse
               style="opacity:1;fill:#000000;fill-opacity:1;stroke:none;stroke-width:3;stroke-linecap:round;stroke-miterlimit:4;stroke-dasharray:none;stroke-opacity:1"
               id="ellipse5168"
               cx="114.05669"
               cy="898.76581"
               rx="2.0073977"
               ry="2.8590209" />
          </g>
        </g>
      </g>
    </g>
    <g
       transform="translate(196.60431,15.572052)"
       id="g5170">
      <path
         style="opacity:1;fill:#803300;fill-opacity:1;stroke:none;stroke-width:3;stroke-linecap:round;stroke-miterlimit:4;stroke-dasharray:none;stroke-opacity:1"
         d="m 25.91613,975.89799 c -1.918039,5.8e-4 -5.170483,0.5241 -8.829653,0.5859 -5.934394,0.10022 -10.611383,-0.34108 -10.640796,0.19184 -0.303151,5.49221 -2.202912,10.78997 0,14.86007 1.131867,2.0913 5.332037,-8.60969 11.102379,-4.78224 5.230903,3.46964 5.153614,-5.36877 5.227675,-5.41655 1.858393,-1.1995 4.891405,-1.57766 4.950183,-4.66128 0.01125,-0.59059 -0.658964,-0.77809 -1.809788,-0.77774 z m -6.792458,5.96616 c 0.554021,4.8e-4 2.076585,0.95912 2.076621,1.84746 -3.7e-5,0.88834 -0.915789,2.50257 -1.469809,2.50305 -0.55455,7.1e-4 -4.038406,-1.61387 -4.038442,-2.50305 3.6e-5,-0.88919 2.877081,-1.84818 3.43163,-1.84746 z"
         id="path5172"
         inkscape:connector-curvature="0"
         sodipodi:nodetypes="ssssscssccccc" />
      <g
         id="g5174"
         transform="matrix(0.42036796,0,0,0.88489945,-3.232847,180.53343)">
        <g
           id="g5176"
           transform="translate(1.2166047,0.48664187)">
          <g
             id="g5178">
            <rect
               style="opacity:1;fill:#666666;fill-opacity:1;stroke:none;stroke-width:3;stroke-linecap:round;stroke-miterlimit:4;stroke-dasharray:none;stroke-opacity:1"
               id="rect5180"
               width="90.534164"
               height="5.6574845"
               x="26.990738"
               y="894.90881"
               rx="108.71619"
               ry="0.21614499" />
            <ellipse
               style="opacity:1;fill:#000000;fill-opacity:1;stroke:none;stroke-width:3;stroke-linecap:round;stroke-miterlimit:4;stroke-dasharray:none;stroke-opacity:1"
               id="ellipse5182"
               cx="117.92844"
               cy="897.67084"
               rx="2.0287771"
               ry="2.8590209" />
          </g>
          <g
             id="g5184"
             transform="translate(1.824907,-0.24332094)">
            <rect
               ry="0.21614499"
               rx="106.84775"
               y="896.00378"
               x="24.679188"
               height="5.6574845"
               width="88.97821"
               id="rect5186"
               style="opacity:1;fill:#808080;fill-opacity:1;stroke:none;stroke-width:3;stroke-linecap:round;stroke-miterlimit:4;stroke-dasharray:none;stroke-opacity:1" />
            <ellipse
               ry="2.8590209"
               rx="2.0073977"
               cy="898.76581"
               cx="114.05669"
               id="ellipse5188"
               style="opacity:1;fill:#000000;fill-opacity:1;stroke:none;stroke-width:3;stroke-linecap:round;stroke-miterlimit:4;stroke-dasharray:none;stroke-opacity:1" />
          </g>
        </g>
      </g>
    </g>
  </g>
</svg>
