<?xml version="1.0" encoding="UTF-8" standalone="no"?>
<!-- Created with Inkscape (http://www.inkscape.org/) -->

<svg
   xmlns:dc="http://purl.org/dc/elements/1.1/"
   xmlns:cc="http://creativecommons.org/ns#"
   xmlns:rdf="http://www.w3.org/1999/02/22-rdf-syntax-ns#"
   xmlns:svg="http://www.w3.org/2000/svg"
   xmlns="http://www.w3.org/2000/svg"
   xmlns:xlink="http://www.w3.org/1999/xlink"
   xmlns:sodipodi="http://sodipodi.sourceforge.net/DTD/sodipodi-0.dtd"
   xmlns:inkscape="http://www.inkscape.org/namespaces/inkscape"
   width="384"
   height="128"
   viewBox="0 0 384 128"
   id="svg3343"
   version="1.1"
   inkscape:version="0.91 r13725"
   sodipodi:docname="kelly_die_64x128_final.svg"
   inkscape:export-filename="C:\dev\kelly\libgdx\kelly\resources\raw\actors\kelly\sheets\die\kelly_die_128_128.png"
   inkscape:export-xdpi="90"
   inkscape:export-ydpi="90">
  <defs
     id="defs3345">
    <linearGradient
       inkscape:collect="always"
       id="linearGradient4258">
      <stop
         id="stop4262"
         offset="0"
         style="stop-color:#ff5354;stop-opacity:1" />
      <stop
         id="stop4260"
         offset="1"
         style="stop-color:#ffe1bd;stop-opacity:1;" />
    </linearGradient>
    <linearGradient
       inkscape:collect="always"
       xlink:href="#linearGradient4258"
       id="linearGradient4600"
       x1="110.35714"
       y1="872.18359"
       x2="101.17967"
       y2="866.56177"
       gradientUnits="userSpaceOnUse"
       gradientTransform="matrix(1.0709502,0,0,1.7196015,124.96384,-629.34808)" />
    <linearGradient
       inkscape:collect="always"
       xlink:href="#linearGradient4258"
       id="linearGradient7382"
       gradientUnits="userSpaceOnUse"
       gradientTransform="matrix(0.41846984,0.11469408,-0.12138526,1.0194274,127.26873,51.100757)"
       x1="102.69913"
       y1="875.26208"
       x2="101.17967"
       y2="866.56177" />
    <linearGradient
       inkscape:collect="always"
       xlink:href="#linearGradient4258"
       id="linearGradient7413"
       gradientUnits="userSpaceOnUse"
       x1="20.937202"
       y1="850.89117"
       x2="63.87508"
       y2="857.39673" />
    <linearGradient
       inkscape:collect="always"
       xlink:href="#linearGradient4258"
       id="linearGradient7423"
       gradientUnits="userSpaceOnUse"
       x1="20.937202"
       y1="850.89117"
       x2="63.87508"
       y2="857.39673" />
    <linearGradient
       inkscape:collect="always"
       xlink:href="#linearGradient4258"
       id="linearGradient7427"
       gradientUnits="userSpaceOnUse"
       gradientTransform="matrix(0.36878495,0.10107646,-0.04030831,0.33852045,71.961367,649.17578)"
       x1="3.8151491"
       y1="940.15533"
       x2="82.249069"
       y2="891.37244" />
    <linearGradient
       inkscape:collect="always"
       xlink:href="#linearGradient4258"
       id="linearGradient4396"
       gradientUnits="userSpaceOnUse"
       gradientTransform="matrix(0.36878495,0.10107646,-0.04030831,0.33852045,199.90637,649.17578)"
       x1="3.8151491"
       y1="940.15533"
       x2="82.249069"
       y2="891.37244" />
    <linearGradient
       inkscape:collect="always"
       xlink:href="#linearGradient4258"
       id="linearGradient4398"
       gradientUnits="userSpaceOnUse"
       gradientTransform="matrix(0.41846984,0.11469408,-0.12138526,1.0194274,255.21374,51.100757)"
       x1="102.69913"
       y1="875.26208"
       x2="101.17967"
       y2="866.56177" />
    <linearGradient
       inkscape:collect="always"
       xlink:href="#linearGradient4258"
       id="linearGradient4400"
       gradientUnits="userSpaceOnUse"
       x1="20.937202"
       y1="850.89117"
       x2="63.87508"
       y2="857.39673" />
    <linearGradient
       inkscape:collect="always"
       xlink:href="#linearGradient4258"
       id="linearGradient4402"
       gradientUnits="userSpaceOnUse"
       x1="20.937202"
       y1="850.89117"
       x2="63.87508"
       y2="857.39673" />
    <linearGradient
       inkscape:collect="always"
       xlink:href="#linearGradient4258"
       id="linearGradient4594"
       gradientUnits="userSpaceOnUse"
       gradientTransform="matrix(0.36878495,0.10107646,-0.04030831,0.33852045,327.90637,649.17578)"
       x1="3.8151491"
       y1="940.15533"
       x2="82.249069"
       y2="891.37244" />
    <linearGradient
       inkscape:collect="always"
       xlink:href="#linearGradient4258"
       id="linearGradient4596"
       gradientUnits="userSpaceOnUse"
       gradientTransform="matrix(0.41846984,0.11469408,-0.12138526,1.0194274,383.21374,51.100757)"
       x1="102.69913"
       y1="875.26208"
       x2="101.17967"
       y2="866.56177" />
    <linearGradient
       inkscape:collect="always"
       xlink:href="#linearGradient4258"
       id="linearGradient4598"
       gradientUnits="userSpaceOnUse"
       x1="20.937202"
       y1="850.89117"
       x2="63.87508"
       y2="857.39673" />
    <linearGradient
       inkscape:collect="always"
       xlink:href="#linearGradient4258"
       id="linearGradient4601"
       gradientUnits="userSpaceOnUse"
       x1="20.937202"
       y1="850.89117"
       x2="63.87508"
       y2="857.39673" />
  </defs>
  <sodipodi:namedview
     id="base"
     pagecolor="#ffffff"
     bordercolor="#666666"
     borderopacity="1.0"
     inkscape:pageopacity="0.0"
     inkscape:pageshadow="2"
     inkscape:zoom="2.1714286"
     inkscape:cx="258.44542"
     inkscape:cy="61.896225"
     inkscape:document-units="px"
     inkscape:current-layer="layer1"
     showgrid="false"
     units="px"
     showborder="true"
     inkscape:window-width="1366"
     inkscape:window-height="705"
     inkscape:window-x="-8"
     inkscape:window-y="-8"
     inkscape:window-maximized="1"
     inkscape:showpageshadow="false"
     borderlayer="true"
     showguides="false" />
  <metadata
     id="metadata3348">
    <rdf:RDF>
      <cc:Work
         rdf:about="">
        <dc:format>image/svg+xml</dc:format>
        <dc:type
           rdf:resource="http://purl.org/dc/dcmitype/StillImage" />
        <dc:title />
      </cc:Work>
    </rdf:RDF>
  </metadata>
  <g
     inkscape:label="Layer 1"
     inkscape:groupmode="layer"
     id="layer1"
     transform="translate(0,-924.36214)">
    <g
       transform="matrix(0.33935708,0.31742309,-0.21850356,0.47498172,254.39606,507.41653)"
       id="g7437">
      <path
         style="fill:#806600;fill-opacity:1;stroke:none"
         d="m 26.71933,983.82127 c 4.646834,18.43243 1.24521,19.74903 -2.091078,19.74903 -3.336288,0 -8.596648,-9.68095 -8.596654,-22.76947 -10e-7,-13.08853 4.460861,-34.309 14.405204,-24.39591 4.029206,4.01654 -6.91701,14.72491 -3.717472,27.41635 z"
         id="path7439"
         inkscape:connector-curvature="0"
         sodipodi:nodetypes="sssss" />
      <path
         style="fill:#ffe0bd;fill-opacity:1;stroke:none"
         d="m 30.669146,1009.6113 c -4.482881,1.9185 6.710561,10.2231 2.091078,10.2231 -4.619483,0 -14.405207,-4.4176 -14.405205,-9.2937 -2e-6,-4.8761 3.744829,-8.829 8.364313,-8.829 4.619483,0 8.828998,5.8116 3.949814,7.8996 z"
         id="path7441"
         inkscape:connector-curvature="0"
         sodipodi:nodetypes="sssss" />
      <path
         style="fill:#917c6f;fill-opacity:1;stroke:none"
         d="m 19.894421,998.45275 9.305697,-0.7114 c 0.925069,-0.071 1.597006,2.76185 1.812093,3.34785 l 0.982768,2.6779 c 0.215088,0.586 -0.547321,1.1367 -1.472391,1.2073 l -9.305697,0.7114 c -0.92507,0.071 -1.75784,-0.3539 -1.867212,-0.9521 l -0.927649,-5.07355 c -0.109365,-0.5982 0.547321,-1.1367 1.472391,-1.2074 z"
         id="path7443"
         inkscape:connector-curvature="0"
         sodipodi:nodetypes="sssssssss" />
    </g>
    <g
       id="g7445"
       transform="matrix(-0.33935708,0.31742309,0.21850356,0.47498172,-130.82024,507.16653)">
      <path
         sodipodi:nodetypes="sssss"
         inkscape:connector-curvature="0"
         id="path7447"
         d="m 26.71933,983.82127 c 4.646834,18.43243 1.24521,19.74903 -2.091078,19.74903 -3.336288,0 -8.596648,-9.68095 -8.596654,-22.76947 -10e-7,-13.08853 4.460861,-34.309 14.405204,-24.39591 4.029206,4.01654 -6.91701,14.72491 -3.717472,27.41635 z"
         style="fill:#806600;fill-opacity:1;stroke:none" />
      <path
         sodipodi:nodetypes="sssss"
         inkscape:connector-curvature="0"
         id="path7449"
         d="m 30.669146,1009.6113 c -4.482881,1.9185 6.710561,10.2231 2.091078,10.2231 -4.619483,0 -14.405207,-4.4176 -14.405205,-9.2937 -2e-6,-4.8761 3.744829,-8.829 8.364313,-8.829 4.619483,0 8.828998,5.8116 3.949814,7.8996 z"
         style="fill:#ffe0bd;fill-opacity:1;stroke:none" />
      <path
         sodipodi:nodetypes="sssssssss"
         inkscape:connector-curvature="0"
         id="path7451"
         d="m 19.894421,998.45275 9.305697,-0.7114 c 0.925069,-0.071 1.597006,2.76185 1.812093,3.34785 l 0.982768,2.6779 c 0.215088,0.586 -0.547321,1.1367 -1.472391,1.2073 l -9.305697,0.7114 c -0.92507,0.071 -1.75784,-0.3539 -1.867212,-0.9521 l -0.927649,-5.07355 c -0.109365,-0.5982 0.547321,-1.1367 1.472391,-1.2074 z"
         style="fill:#917c6f;fill-opacity:1;stroke:none" />
    </g>
    <path
       sodipodi:nodetypes="sssss"
       inkscape:connector-curvature="0"
       id="path7429"
       d="m 71.403608,973.58696 c 2.925102,6.439 -2.987929,39.04144 -10.603879,37.61404 -8.03004,-1.5046 -9.388725,-23.56712 -9.018351,-33.31093 0.374584,-9.85456 7.941287,-17.28553 11.308657,-16.17895 5.58296,1.83439 4.595959,3.69229 8.313573,11.87584 z"
       style="fill:#c3834c;fill-opacity:1;stroke:none" />
    <path
       sodipodi:nodetypes="ccccc"
       inkscape:connector-curvature="0"
       id="path7425"
       d="m 59.080464,952.91053 c 2.516551,-2.80834 5.12832,-2.37164 7.930552,0.89157 l -2.787287,12.76577 c -0.898941,3.09529 -3.190715,3.78934 -4.310743,0.22486 -1.741348,-5.80576 -1.580158,-10.08031 -0.832522,-13.8822 z"
       style="fill:url(#linearGradient7427);fill-opacity:1;stroke:none" />
    <path
       sodipodi:nodetypes="ssssss"
       inkscape:connector-curvature="0"
       id="path7352"
       d="m 73.243447,946.93285 c -0.468531,6.62104 -1.827479,6.37158 -5.120382,12.68216 -3.404533,6.5245 -6.374186,9.79312 -9.298939,2.51692 -3.693158,-9.18784 -4.414894,-3.07429 -6.827548,-15.08091 -2.447924,-12.18215 6.959434,-19.2399 14.564026,-14.54697 5.549661,3.4248 7.557783,2.06463 6.682843,14.4288 z"
       style="fill:#ffe0bd;fill-opacity:1;fill-rule:evenodd;stroke:none" />
    <path
       sodipodi:nodetypes="ccccc"
       inkscape:connector-curvature="0"
       id="path7354"
       d="m 56.501424,938.24934 c 0.606061,-0.1034 0.765813,-0.30401 2.018189,-0.35051 0.766082,0.11802 1.093117,0.65819 1.600115,1.03413 -2.103485,0.53846 -3.568289,1.50738 -4.723114,3.00255 0.03636,-1.41498 0.106479,-3.123 1.10481,-3.68617 z"
       style="fill:#800000;fill-opacity:1;stroke:none"
       inkscape:transform-center-x="0.46803499"
       inkscape:transform-center-y="1.0135051" />
    <path
       style="fill:#800000;fill-opacity:1;stroke:none"
       d="m 68.821865,938.18477 c 0.33187,0.51755 0.578927,0.58629 1.110804,1.72106 0.190507,0.75135 -0.17906,1.26335 -0.327171,1.8769 -1.317127,-1.7262 -2.781134,-2.69632 -4.608554,-3.17558 1.316831,-0.5191 2.916617,-1.12153 3.824921,-0.42238 z"
       id="path7356"
       inkscape:connector-curvature="0"
       sodipodi:nodetypes="ccccc"
       inkscape:transform-center-x="-0.80149461"
       inkscape:transform-center-y="1.2288743" />
    <g
       transform="matrix(0.39074631,0.10709562,-0.05955962,0.50019835,77.2978,508.82037)"
       id="g7358">
      <ellipse
         style="fill:#000000;fill-opacity:1;stroke:none"
         id="ellipse7360"
         cx="83.75"
         cy="850.39783"
         rx="3.75"
         ry="5.7142859" />
      <ellipse
         style="fill:#ffffff;fill-opacity:1;stroke:none"
         id="ellipse7362"
         cx="82.321426"
         cy="848.07635"
         rx="1.25"
         ry="1.9642856" />
    </g>
    <g
       id="g7364"
       transform="matrix(0.39074631,0.10709562,-0.05955962,0.50019835,84.222729,508.82037)">
      <ellipse
         ry="5.7142859"
         rx="3.75"
         cy="850.39783"
         cx="83.75"
         id="ellipse7366"
         style="fill:#000000;fill-opacity:1;stroke:none" />
      <ellipse
         ry="1.9642856"
         rx="1.25"
         cy="848.07635"
         cx="82.321426"
         id="ellipse7368"
         style="fill:#ffffff;fill-opacity:1;stroke:none" />
    </g>
    <path
       sodipodi:nodetypes="ccc"
       inkscape:connector-curvature="0"
       id="path7370"
       d="m 59.646331,954.35747 7.786626,0.7786 c 1.799329,9.80491 -11.084079,6.19902 -7.786626,-0.7786 z"
       style="fill:#800000;fill-opacity:1;stroke:none" />
    <path
       style="fill:#f9f9f9;fill-opacity:1;stroke:none"
       d="m 60.798877,957.14269 c 3.530842,-1.75502 4.163787,-0.61214 5.331472,-0.004 1.506356,3.67863 -7.215663,2.25132 -5.331472,0.004 z"
       id="path7372"
       inkscape:connector-curvature="0"
       sodipodi:nodetypes="ccc" />
    <path
       sodipodi:nodetypes="cccc"
       inkscape:connector-curvature="0"
       id="path7374"
       d="m 60.07552,961.32414 c 2.619138,2.53191 5.944622,-0.17343 5.944622,-0.17343 0.428106,1.11273 -1.688922,19.31028 -4.340371,15.50293 -0.0083,-5.54063 -2.134307,-10.65121 -1.604251,-15.3295 z"
       style="fill:#800000;fill-opacity:1;stroke:none" />
    <path
       sodipodi:nodetypes="cccccc"
       inkscape:connector-curvature="0"
       id="path7376"
       d="m 64.717768,953.74461 c -2.522713,0.47323 -1.508865,-0.88856 -7.179191,1.53133 -3.627308,2.43009 -2.364214,3.12644 -0.08656,2.82754 2.132248,0.62052 3.607311,-4.03329 4.863221,-1.7868 1.336426,0.15674 2.143967,0.60537 2.310357,0.0348 0.08995,-0.73848 1.014469,-1.79594 0.09217,-2.60689 z"
       style="fill:#800000;fill-opacity:1;stroke:none" />
    <path
       sodipodi:nodetypes="sssss"
       inkscape:connector-curvature="0"
       id="path7380"
       d="m 64.004149,945.16723 c 0.3038,5.32493 2.084173,8.23525 -0.965757,8.10802 -3.46736,-0.14465 -1.324408,-2.85099 -0.836831,-7.64317 0.482943,-4.74662 -2.271597,-7.10236 0.521249,-7.17658 3.165777,-0.0841 1.036238,2.41567 1.281339,6.71173 z"
       style="fill:url(#linearGradient7382);fill-opacity:1;stroke:none" />
    <path
       style="fill:#800000;fill-opacity:1;stroke:none"
       d="m 62.59044,953.74461 c 2.522713,0.47323 1.508865,-0.88856 7.179191,1.53133 3.627308,2.43009 2.364214,3.12644 0.08656,2.82754 -2.132248,0.62052 -3.607311,-4.03329 -4.863221,-1.7868 -1.336426,0.15674 -2.143967,0.60537 -2.310357,0.0348 -0.08995,-0.73848 -1.014469,-1.79594 -0.09217,-2.60689 z"
       id="path7384"
       inkscape:connector-curvature="0"
       sodipodi:nodetypes="cccccc" />
    <path
       style="opacity:1;fill:#800000;fill-opacity:1;stroke:none;stroke-width:0.5;stroke-linecap:round;stroke-miterlimit:4;stroke-dasharray:none;stroke-opacity:1"
       d="m 73.242869,936.54736 c 1.993104,9.83591 -1.751131,12.58031 -1.082019,7.77334 1.082019,-7.77334 -2.47448,-8.65625 -3.97965,-10.04358 -1.18774,-1.09476 -3.966253,1.31723 -5.064296,1.38207 -2.32608,0.13735 -4.176882,-1.27125 -6.343866,-0.44022 -2.855544,1.09509 -3.494458,8.03782 -3.49804,9.72881 -0.0064,3.01885 -1.672519,-0.22129 -1.989658,-1.05323 -1.224572,-3.21237 4.768998,-15.64169 12.225163,-14.59341 4.89217,0.6878 9.268559,4.95734 9.732366,7.24622 z"
       id="path7386"
       inkscape:connector-curvature="0"
       sodipodi:nodetypes="sssssssss" />
    <g
       transform="matrix(0.17531228,0.10709562,-0.03167055,0.59282768,68.601415,431.11566)"
       id="g7405">
      <path
         style="fill:url(#linearGradient7413);fill-opacity:1;stroke:none"
         d="m 63.841068,857.81792 c 0,4.31914 0.716986,5.6727 -4.432928,7.51366 -3.62131,1.29452 -9.428188,-4.88208 -9.428188,-9.20121 0,-4.31913 5.951614,-8.11188 9.428188,-6.43977 3.827644,1.84096 4.432928,3.80818 4.432928,8.12732 z"
         id="path7407"
         inkscape:connector-curvature="0"
         sodipodi:nodetypes="sssss" />
      <path
         style="fill:#ad6452;fill-opacity:0.50887571;fill-rule:evenodd;stroke:none"
         d="m 53.471845,851.33338 c 2.407639,-1.79004 4.802903,-1.15691 6.516101,-0.13161 1.806935,1.15349 3.045242,2.63768 1.850325,4.09052 -0.858264,0.65265 -2.0596,0.8235 -3.382806,1.27696 -1.965131,0.67344 -3.172522,2.08037 -4.414429,2.81582 -1.408129,0.12594 1.605161,-2.52983 1.605161,-2.52983 2.707977,-1.59991 4.331234,-2.71617 2.596915,-4.00167 -2.598468,-1.0474 -6.641245,1.3003 -6.641245,1.3003 0.311884,-1.24739 0.771277,-1.77621 1.869978,-2.82049 z"
         id="path7409"
         inkscape:connector-curvature="0"
         sodipodi:nodetypes="cccsccccc" />
      <ellipse
         style="fill:#ffe0bd;fill-opacity:1;stroke:none"
         id="ellipse7411"
         cx="-324.3681"
         cy="788.78729"
         rx="3.9439082"
         ry="2.1201811"
         transform="matrix(0.88500782,-0.46557615,0.43875165,0.89860836,0,0)" />
    </g>
    <g
       id="g7415"
       transform="matrix(-0.17531228,0.10709562,0.03167055,0.59282768,56.626835,431.24686)">
      <path
         sodipodi:nodetypes="sssss"
         inkscape:connector-curvature="0"
         id="path7417"
         d="m 63.841068,857.81792 c 0,4.31914 0.716986,5.6727 -4.432928,7.51366 -3.62131,1.29452 -9.428188,-4.88208 -9.428188,-9.20121 0,-4.31913 5.951614,-8.11188 9.428188,-6.43977 3.827644,1.84096 4.432928,3.80818 4.432928,8.12732 z"
         style="fill:url(#linearGradient7423);fill-opacity:1;stroke:none" />
      <path
         sodipodi:nodetypes="cccsccccc"
         inkscape:connector-curvature="0"
         id="path7419"
         d="m 53.471845,851.33338 c 2.407639,-1.79004 4.802903,-1.15691 6.516101,-0.13161 1.806935,1.15349 3.045242,2.63768 1.850325,4.09052 -0.858264,0.65265 -2.0596,0.8235 -3.382806,1.27696 -1.965131,0.67344 -3.172522,2.08037 -4.414429,2.81582 -1.408129,0.12594 1.605161,-2.52983 1.605161,-2.52983 2.707977,-1.59991 4.331234,-2.71617 2.596915,-4.00167 -2.598468,-1.0474 -6.641245,1.3003 -6.641245,1.3003 0.311884,-1.24739 0.771277,-1.77621 1.869978,-2.82049 z"
         style="fill:#ad6452;fill-opacity:0.50887571;fill-rule:evenodd;stroke:none" />
      <ellipse
         transform="matrix(0.88500782,-0.46557615,0.43875165,0.89860836,0,0)"
         ry="2.1201811"
         rx="3.9439082"
         cy="788.78729"
         cx="-324.3681"
         id="ellipse7421"
         style="fill:#ffe0bd;fill-opacity:1;stroke:none" />
    </g>
    <path
       sodipodi:nodetypes="sssss"
       inkscape:connector-curvature="0"
       id="path7433"
       d="m 69.026343,1008.6124 c -0.764115,6.4058 -1.847769,7.2291 -6.901668,7.9397 -4.497306,0.6323 -7.871092,-2.4323 -8.319802,-8.8678 -0.44239,-6.3449 2.123671,-7.0722 8.72016,-6.9109 4.54015,0.111 7.266165,1.427 6.50131,7.839 z"
       style="fill:#c3834c;fill-opacity:1;stroke:none" />
    <rect
       style="opacity:1;fill:#803300;fill-opacity:1;stroke:none;stroke-width:0.5;stroke-linecap:round;stroke-miterlimit:4;stroke-dasharray:none;stroke-opacity:1"
       id="rect7435"
       width="19.248846"
       height="4.6277714"
       x="51.654236"
       y="1002.0595"
       rx="0.736444"
       ry="0.94539201" />
    <g
       id="g7481"
       transform="matrix(0.93247434,-0.36123621,0.36123621,0.93247434,-237.67676,50.273644)"
       inkscape:transform-center-x="-14.36564"
       inkscape:transform-center-y="13.910256">
      <path
         inkscape:transform-center-y="8.7346203"
         inkscape:transform-center-x="-3.0432261"
         sodipodi:nodetypes="sssss"
         inkscape:connector-curvature="0"
         id="path7455"
         d="m -58.851684,1033.2553 c 2.906189,7.6373 6.06848,7.8102 8.217756,6.9795 2.148592,-0.8324 0.06785,-1.815 -2.838265,-9.4521 -2.906153,-7.6372 0.435458,-13.0788 -7.174123,-12.8926 -2.369603,0.058 -1.111486,7.7281 1.794632,15.3652 z"
         style="fill:#806600;fill-opacity:1;stroke:none" />
      <path
         style="fill:#806600;fill-opacity:1;stroke:none"
         d="m -56.107701,1016.1189 c 1.159898,7.9893 -1.489902,10.1258 -3.746707,10.8136 -2.256807,0.6879 -0.931179,-1.4198 -2.091072,-9.4091 -1.159897,-7.9895 -6.663815,-10.2642 0.0021,-14.9196 2.075758,-1.4496 4.675757,5.5256 5.835653,13.5151 z"
         id="path7457"
         inkscape:connector-curvature="0"
         sodipodi:nodetypes="sssss" />
      <path
         style="fill:#1a1600;fill-opacity:1;stroke:none"
         d="m -53.656307,1043.222 1.416975,-0.6337 c 0.323414,-0.1446 0.755776,0.06 0.89267,0.4866 0.440047,1.284 1.128753,3.1159 0.954636,3.9851 l -1.416975,0.6337 c -1.256788,-0.054 -1.600112,-2.1991 -2.12221,-3.463 -0.171116,-0.4142 -0.04852,-0.8641 0.274904,-1.0087 z"
         id="path7459"
         inkscape:connector-curvature="0"
         sodipodi:nodetypes="ssccccs" />
      <path
         style="fill:#803300;fill-opacity:1;stroke:none"
         d="m -49.35274,1039.1429 c 4.105281,2.6565 4.865232,0.4095 7.835323,1.8758 0,0 1.914263,1.7229 -0.219605,2.777 -1.985425,0.9807 -4.929911,2.8998 -6.073132,-0.092 l -3.160076,0.4162 c -4.116404,2.5458 -4.9251,-4.7279 -6.000901,-6.9706 -2.054697,-5.2494 -3.308247,-4.3447 -2.054697,-5.2494 1.344025,-1.892 4.371666,-2.066 5.589793,-2.8156 0.978873,6.3393 4.083294,10.0586 4.083294,10.0586 z"
         id="path7461"
         inkscape:connector-curvature="0"
         sodipodi:nodetypes="ccscccccc" />
    </g>
    <g
       id="g7487"
       inkscape:transform-center-x="13.485716"
       inkscape:transform-center-y="14.534171"
       transform="matrix(0.94969527,0.3131755,-0.3131755,0.94969527,439.74314,78.375019)">
      <path
         inkscape:transform-center-y="9.2230805"
         inkscape:transform-center-x="3.5365188"
         style="fill:#806600;fill-opacity:1;stroke:none"
         d="m -75.971607,1032.6374 c -2.969045,7.6131 -6.132655,7.76 -8.27501,6.9116 -2.141657,-0.8501 -0.05289,-1.8155 2.916082,-9.4284 2.969008,-7.6129 -0.327634,-13.0819 7.280154,-12.8331 2.369045,0.078 1.047745,7.737 -1.921226,15.3499 z"
         id="path7465"
         inkscape:connector-curvature="0"
         sodipodi:nodetypes="sssss" />
      <path
         sodipodi:nodetypes="sssss"
         inkscape:connector-curvature="0"
         id="path7467"
         d="m -78.392859,1015.6189 c -1.159898,7.9893 1.489902,10.1258 3.746707,10.8136 2.256807,0.6879 0.931179,-1.4198 2.091072,-9.4091 1.159897,-7.9895 6.663815,-10.2642 -0.0021,-14.9196 -2.075758,-1.4496 -4.675757,5.5256 -5.835653,13.5151 z"
         style="fill:#806600;fill-opacity:1;stroke:none" />
      <path
         inkscape:transform-center-y="25.076634"
         inkscape:transform-center-x="7.2946346"
         sodipodi:nodetypes="ssccccs"
         inkscape:connector-curvature="0"
         id="path7469"
         d="m -81.248964,1042.561 -1.411703,-0.6454 c -0.322211,-0.1473 -0.756243,0.053 -0.896651,0.4793 -0.450615,1.2803 -1.154399,3.1065 -0.987453,3.9771 l 1.411703,0.6453 c 1.257196,-0.044 1.618186,-2.1859 2.150684,-3.4454 0.174525,-0.4128 0.05564,-0.8637 -0.26658,-1.0109 z"
         style="fill:#1a1600;fill-opacity:1;stroke:none" />
      <path
         inkscape:transform-center-y="17.137514"
         inkscape:transform-center-x="9.2889563"
         sodipodi:nodetypes="ccscccccc"
         inkscape:connector-curvature="0"
         id="path7471"
         d="m -85.518761,1038.4466 c -4.127039,2.6226 -4.868442,0.3694 -7.850519,1.8111 0,0 -1.928399,1.707 0.196707,2.7787 1.977274,0.997 4.905841,2.9404 6.073684,-0.042 l 3.156538,0.4422 c 4.095279,2.5797 4.963905,-4.6871 6.058156,-6.9209 2.097898,-5.2322 3.343948,-4.3172 2.097898,-5.2322 -1.328383,-1.9031 -4.354487,-2.1021 -5.566394,-2.8617 -1.031094,6.331 -4.166069,10.0247 -4.166069,10.0247 z"
         style="fill:#803300;fill-opacity:1;stroke:none" />
    </g>
    <g
       id="g4360"
       transform="matrix(0.04620995,0.46236921,-0.47729116,0.21341179,637.91138,755.42514)"
       inkscape:transform-center-x="12.021555"
       inkscape:transform-center-y="7.6281636">
      <path
         sodipodi:nodetypes="sssss"
         inkscape:connector-curvature="0"
         id="path4362"
         d="m 26.71933,983.82127 c 4.646834,18.43243 1.24521,19.74903 -2.091078,19.74903 -3.336288,0 -8.596648,-9.68095 -8.596654,-22.76947 -10e-7,-13.08853 4.460861,-34.309 14.405204,-24.39591 4.029206,4.01654 -6.91701,14.72491 -3.717472,27.41635 z"
         style="fill:#806600;fill-opacity:1;stroke:none" />
      <path
         sodipodi:nodetypes="sssss"
         inkscape:connector-curvature="0"
         id="path4364"
         d="m 30.669146,1009.6113 c -4.482881,1.9185 6.710561,10.2231 2.091078,10.2231 -4.619483,0 -14.405207,-4.4176 -14.405205,-9.2937 -2e-6,-4.8761 3.744829,-8.829 8.364313,-8.829 4.619483,0 8.828998,5.8116 3.949814,7.8996 z"
         style="fill:#ffe0bd;fill-opacity:1;stroke:none" />
      <path
         sodipodi:nodetypes="sssssssss"
         inkscape:connector-curvature="0"
         id="path4366"
         d="m 19.894421,998.45275 9.305697,-0.7114 c 0.925069,-0.071 1.597006,2.76185 1.812093,3.34785 l 0.982768,2.6779 c 0.215088,0.586 -0.547321,1.1367 -1.472391,1.2073 l -9.305697,0.7114 c -0.92507,0.071 -1.75784,-0.3539 -1.867212,-0.9521 l -0.927649,-5.07355 c -0.109365,-0.5982 0.547321,-1.1367 1.472391,-1.2074 z"
         style="fill:#917c6f;fill-opacity:1;stroke:none" />
    </g>
    <g
       transform="matrix(-0.07756799,0.45815265,0.46166159,0.24539768,-242.96597,724.40849)"
       id="g4368"
       inkscape:transform-center-x="-10.175761"
       inkscape:transform-center-y="7.3836432">
      <path
         style="fill:#806600;fill-opacity:1;stroke:none"
         d="m 26.71933,983.82127 c 4.646834,18.43243 1.24521,19.74903 -2.091078,19.74903 -3.336288,0 -8.596648,-9.68095 -8.596654,-22.76947 -10e-7,-13.08853 4.460861,-34.309 14.405204,-24.39591 4.029206,4.01654 -6.91701,14.72491 -3.717472,27.41635 z"
         id="path4370"
         inkscape:connector-curvature="0"
         sodipodi:nodetypes="sssss" />
      <path
         style="fill:#ffe0bd;fill-opacity:1;stroke:none"
         d="m 30.669146,1009.6113 c -4.482881,1.9185 6.710561,10.2231 2.091078,10.2231 -4.619483,0 -14.405207,-4.4176 -14.405205,-9.2937 -2e-6,-4.8761 3.744829,-8.829 8.364313,-8.829 4.619483,0 8.828998,5.8116 3.949814,7.8996 z"
         id="path4372"
         inkscape:connector-curvature="0"
         sodipodi:nodetypes="sssss" />
      <path
         style="fill:#917c6f;fill-opacity:1;stroke:none"
         d="m 19.894421,998.45275 9.305697,-0.7114 c 0.925069,-0.071 1.597006,2.76185 1.812093,3.34785 l 0.982768,2.6779 c 0.215088,0.586 -0.547321,1.1367 -1.472391,1.2073 l -9.305697,0.7114 c -0.92507,0.071 -1.75784,-0.3539 -1.867212,-0.9521 l -0.927649,-5.07355 c -0.109365,-0.5982 0.547321,-1.1367 1.472391,-1.2074 z"
         id="path4374"
         inkscape:connector-curvature="0"
         sodipodi:nodetypes="sssssssss" />
    </g>
    <path
       style="fill:#c3834c;fill-opacity:1;stroke:none"
       d="m 199.34862,973.58696 c 2.9251,6.439 -2.98793,39.04144 -10.60388,37.61404 -8.03004,-1.5046 -9.38873,-23.56712 -9.01835,-33.31093 0.37458,-9.85456 7.94128,-17.28553 11.30865,-16.17895 5.58296,1.83439 4.59596,3.69229 8.31358,11.87584 z"
       id="path4304"
       inkscape:connector-curvature="0"
       sodipodi:nodetypes="sssss" />
    <path
       style="fill:url(#linearGradient4396);fill-opacity:1;stroke:none"
       d="m 187.02547,952.91053 c 2.51655,-2.80834 5.12832,-2.37164 7.93055,0.89157 l -2.78728,12.76577 c -0.89894,3.09529 -3.19072,3.78934 -4.31075,0.22486 -1.74134,-5.80576 -1.58015,-10.08031 -0.83252,-13.8822 z"
       id="path4306"
       inkscape:connector-curvature="0"
       sodipodi:nodetypes="ccccc" />
    <path
       style="fill:#ffe0bd;fill-opacity:1;fill-rule:evenodd;stroke:none"
       d="m 201.18845,946.93285 c -0.46853,6.62104 -1.82747,6.37158 -5.12038,12.68216 -3.40453,6.5245 -6.37418,9.79312 -9.29894,2.51692 -3.69315,-9.18784 -4.41489,-3.07429 -6.82754,-15.08091 -2.44793,-12.18215 6.95943,-19.2399 14.56402,-14.54697 5.54966,3.4248 7.55778,2.06463 6.68284,14.4288 z"
       id="path4308"
       inkscape:connector-curvature="0"
       sodipodi:nodetypes="ssssss" />
    <path
       inkscape:transform-center-y="1.0135051"
       inkscape:transform-center-x="0.46803499"
       style="fill:#800000;fill-opacity:1;stroke:none"
       d="m 184.44643,938.24934 c 0.60606,-0.1034 0.76581,-0.30401 2.01819,-0.35051 0.76608,0.11802 1.09312,0.65819 1.60012,1.03413 -2.10349,0.53846 -3.56829,1.50738 -4.72312,3.00255 0.0364,-1.41498 0.10648,-3.123 1.10481,-3.68617 z"
       id="path4310"
       inkscape:connector-curvature="0"
       sodipodi:nodetypes="ccccc" />
    <path
       inkscape:transform-center-y="1.2288743"
       inkscape:transform-center-x="-0.80149461"
       sodipodi:nodetypes="ccccc"
       inkscape:connector-curvature="0"
       id="path4312"
       d="m 196.76687,938.18477 c 0.33187,0.51755 0.57893,0.58629 1.11081,1.72106 0.1905,0.75135 -0.17906,1.26335 -0.32717,1.8769 -1.31713,-1.7262 -2.78114,-2.69632 -4.60856,-3.17558 1.31683,-0.5191 2.91662,-1.12153 3.82492,-0.42238 z"
       style="fill:#800000;fill-opacity:1;stroke:none" />
    <g
       id="g4314"
       transform="matrix(0.39074631,0.10709562,-0.05955962,0.50019835,205.24281,508.82037)">
      <ellipse
         ry="5.7142859"
         rx="3.75"
         cy="850.39783"
         cx="83.75"
         id="ellipse4316"
         style="fill:#000000;fill-opacity:1;stroke:none" />
      <ellipse
         ry="1.9642856"
         rx="1.25"
         cy="848.07635"
         cx="82.321426"
         id="ellipse4318"
         style="fill:#ffffff;fill-opacity:1;stroke:none" />
    </g>
    <g
       transform="matrix(0.39074631,0.10709562,-0.05955962,0.50019835,212.16774,508.82037)"
       id="g4320">
      <ellipse
         style="fill:#000000;fill-opacity:1;stroke:none"
         id="ellipse4322"
         cx="83.75"
         cy="850.39783"
         rx="3.75"
         ry="5.7142859" />
      <ellipse
         style="fill:#ffffff;fill-opacity:1;stroke:none"
         id="ellipse4324"
         cx="82.321426"
         cy="848.07635"
         rx="1.25"
         ry="1.9642856" />
    </g>
    <path
       style="fill:#800000;fill-opacity:1;stroke:none"
       d="m 187.59134,954.35747 7.78662,0.7786 c 1.79933,9.80491 -11.08407,6.19902 -7.78662,-0.7786 z"
       id="path4326"
       inkscape:connector-curvature="0"
       sodipodi:nodetypes="ccc" />
    <path
       sodipodi:nodetypes="ccc"
       inkscape:connector-curvature="0"
       id="path4328"
       d="m 188.74388,957.14269 c 3.53085,-1.75502 4.16379,-0.61214 5.33148,-0.004 1.50635,3.67863 -7.21567,2.25132 -5.33148,0.004 z"
       style="fill:#f9f9f9;fill-opacity:1;stroke:none" />
    <path
       style="fill:#800000;fill-opacity:1;stroke:none"
       d="m 188.02053,961.32414 c 2.61914,2.53191 5.94462,-0.17343 5.94462,-0.17343 0.42811,1.11273 -1.68892,19.31028 -4.34037,15.50293 -0.008,-5.54063 -2.13431,-10.65121 -1.60425,-15.3295 z"
       id="path4330"
       inkscape:connector-curvature="0"
       sodipodi:nodetypes="cccc" />
    <path
       style="fill:#800000;fill-opacity:1;stroke:none"
       d="m 192.66278,953.74461 c -2.52272,0.47323 -1.50887,-0.88856 -7.1792,1.53133 -3.6273,2.43009 -2.36421,3.12644 -0.0866,2.82754 2.13225,0.62052 3.60732,-4.03329 4.86323,-1.7868 1.33642,0.15674 2.14396,0.60537 2.31035,0.0348 0.09,-0.73848 1.01447,-1.79594 0.0922,-2.60689 z"
       id="path4332"
       inkscape:connector-curvature="0"
       sodipodi:nodetypes="cccccc" />
    <path
       style="fill:url(#linearGradient4398);fill-opacity:1;stroke:none"
       d="m 191.94916,945.16723 c 0.3038,5.32493 2.08417,8.23525 -0.96576,8.10802 -3.46736,-0.14465 -1.32441,-2.85099 -0.83683,-7.64317 0.48294,-4.74662 -2.2716,-7.10236 0.52125,-7.17658 3.16577,-0.0841 1.03624,2.41567 1.28134,6.71173 z"
       id="path4334"
       inkscape:connector-curvature="0"
       sodipodi:nodetypes="sssss" />
    <path
       sodipodi:nodetypes="cccccc"
       inkscape:connector-curvature="0"
       id="path4336"
       d="m 190.53545,953.74461 c 2.52271,0.47323 1.50886,-0.88856 7.17919,1.53133 3.62731,2.43009 2.36421,3.12644 0.0866,2.82754 -2.13225,0.62052 -3.60731,-4.03329 -4.86322,-1.7868 -1.33643,0.15674 -2.14397,0.60537 -2.31036,0.0348 -0.09,-0.73848 -1.01447,-1.79594 -0.0922,-2.60689 z"
       style="fill:#800000;fill-opacity:1;stroke:none" />
    <path
       sodipodi:nodetypes="sssssssss"
       inkscape:connector-curvature="0"
       id="path4338"
       d="m 201.18788,936.54736 c 1.9931,9.83591 -1.75113,12.58031 -1.08202,7.77334 1.08202,-7.77334 -2.47448,-8.65625 -3.97965,-10.04358 -1.18774,-1.09476 -3.96626,1.31723 -5.0643,1.38207 -2.32608,0.13735 -4.17688,-1.27125 -6.34386,-0.44022 -2.85555,1.09509 -3.49446,8.03782 -3.49804,9.72881 -0.006,3.01885 -1.67252,-0.22129 -1.98966,-1.05323 -1.22457,-3.21237 4.769,-15.64169 12.22516,-14.59341 4.89217,0.6878 9.26856,4.95734 9.73237,7.24622 z"
       style="opacity:1;fill:#800000;fill-opacity:1;stroke:none;stroke-width:0.5;stroke-linecap:round;stroke-miterlimit:4;stroke-dasharray:none;stroke-opacity:1" />
    <g
       id="g4340"
       transform="matrix(0.17531228,0.10709562,-0.03167055,0.59282768,196.54642,431.11566)">
      <path
         sodipodi:nodetypes="sssss"
         inkscape:connector-curvature="0"
         id="path4342"
         d="m 63.841068,857.81792 c 0,4.31914 0.716986,5.6727 -4.432928,7.51366 -3.62131,1.29452 -9.428188,-4.88208 -9.428188,-9.20121 0,-4.31913 5.951614,-8.11188 9.428188,-6.43977 3.827644,1.84096 4.432928,3.80818 4.432928,8.12732 z"
         style="fill:url(#linearGradient4400);fill-opacity:1;stroke:none" />
      <path
         sodipodi:nodetypes="cccsccccc"
         inkscape:connector-curvature="0"
         id="path4344"
         d="m 53.471845,851.33338 c 2.407639,-1.79004 4.802903,-1.15691 6.516101,-0.13161 1.806935,1.15349 3.045242,2.63768 1.850325,4.09052 -0.858264,0.65265 -2.0596,0.8235 -3.382806,1.27696 -1.965131,0.67344 -3.172522,2.08037 -4.414429,2.81582 -1.408129,0.12594 1.605161,-2.52983 1.605161,-2.52983 2.707977,-1.59991 4.331234,-2.71617 2.596915,-4.00167 -2.598468,-1.0474 -6.641245,1.3003 -6.641245,1.3003 0.311884,-1.24739 0.771277,-1.77621 1.869978,-2.82049 z"
         style="fill:#ad6452;fill-opacity:0.50887571;fill-rule:evenodd;stroke:none" />
      <ellipse
         transform="matrix(0.88500782,-0.46557615,0.43875165,0.89860836,0,0)"
         ry="2.1201811"
         rx="3.9439082"
         cy="788.78729"
         cx="-324.3681"
         id="ellipse4346"
         style="fill:#ffe0bd;fill-opacity:1;stroke:none" />
    </g>
    <g
       transform="matrix(-0.17531228,0.10709562,0.03167055,0.59282768,184.57184,431.24686)"
       id="g4348">
      <path
         style="fill:url(#linearGradient4402);fill-opacity:1;stroke:none"
         d="m 63.841068,857.81792 c 0,4.31914 0.716986,5.6727 -4.432928,7.51366 -3.62131,1.29452 -9.428188,-4.88208 -9.428188,-9.20121 0,-4.31913 5.951614,-8.11188 9.428188,-6.43977 3.827644,1.84096 4.432928,3.80818 4.432928,8.12732 z"
         id="path4350"
         inkscape:connector-curvature="0"
         sodipodi:nodetypes="sssss" />
      <path
         style="fill:#ad6452;fill-opacity:0.50887571;fill-rule:evenodd;stroke:none"
         d="m 53.471845,851.33338 c 2.407639,-1.79004 4.802903,-1.15691 6.516101,-0.13161 1.806935,1.15349 3.045242,2.63768 1.850325,4.09052 -0.858264,0.65265 -2.0596,0.8235 -3.382806,1.27696 -1.965131,0.67344 -3.172522,2.08037 -4.414429,2.81582 -1.408129,0.12594 1.605161,-2.52983 1.605161,-2.52983 2.707977,-1.59991 4.331234,-2.71617 2.596915,-4.00167 -2.598468,-1.0474 -6.641245,1.3003 -6.641245,1.3003 0.311884,-1.24739 0.771277,-1.77621 1.869978,-2.82049 z"
         id="path4352"
         inkscape:connector-curvature="0"
         sodipodi:nodetypes="cccsccccc" />
      <ellipse
         style="fill:#ffe0bd;fill-opacity:1;stroke:none"
         id="ellipse4354"
         cx="-324.3681"
         cy="788.78729"
         rx="3.9439082"
         ry="2.1201811"
         transform="matrix(0.88500782,-0.46557615,0.43875165,0.89860836,0,0)" />
    </g>
    <path
       style="fill:#c3834c;fill-opacity:1;stroke:none"
       d="m 196.97135,1008.6124 c -0.76411,6.4058 -1.84777,7.2291 -6.90167,7.9397 -4.4973,0.6323 -7.87109,-2.4323 -8.3198,-8.8678 -0.44239,-6.3449 2.12367,-7.0722 8.72016,-6.9109 4.54015,0.111 7.26617,1.427 6.50131,7.839 z"
       id="path4356"
       inkscape:connector-curvature="0"
       sodipodi:nodetypes="sssss" />
    <rect
       ry="0.94539201"
       rx="0.736444"
       y="1002.0595"
       x="179.59924"
       height="4.6277714"
       width="19.248846"
       id="rect4358"
       style="opacity:1;fill:#803300;fill-opacity:1;stroke:none;stroke-width:0.5;stroke-linecap:round;stroke-miterlimit:4;stroke-dasharray:none;stroke-opacity:1" />
    <g
       inkscape:transform-center-y="11.157902"
       inkscape:transform-center-x="-16.577166"
       transform="matrix(0.83201771,-0.55474908,0.55474908,0.83201771,-311.02669,139.55016)"
       id="g4376">
      <path
         style="fill:#806600;fill-opacity:1;stroke:none"
         d="m -58.851684,1033.2553 c 2.906189,7.6373 6.06848,7.8102 8.217756,6.9795 2.148592,-0.8324 0.06785,-1.815 -2.838265,-9.4521 -2.906153,-7.6372 0.435458,-13.0788 -7.174123,-12.8926 -2.369603,0.058 -1.111486,7.7281 1.794632,15.3652 z"
         id="path4378"
         inkscape:connector-curvature="0"
         sodipodi:nodetypes="sssss"
         inkscape:transform-center-x="-3.0432261"
         inkscape:transform-center-y="8.7346203" />
      <path
         sodipodi:nodetypes="sssss"
         inkscape:connector-curvature="0"
         id="path4380"
         d="m -56.107701,1016.1189 c 1.159898,7.9893 -1.489902,10.1258 -3.746707,10.8136 -2.256807,0.6879 -0.931179,-1.4198 -2.091072,-9.4091 -1.159897,-7.9895 -6.663815,-10.2642 0.0021,-14.9196 2.075758,-1.4496 4.675757,5.5256 5.835653,13.5151 z"
         style="fill:#806600;fill-opacity:1;stroke:none" />
      <path
         sodipodi:nodetypes="ssccccs"
         inkscape:connector-curvature="0"
         id="path4382"
         d="m -53.656307,1043.222 1.416975,-0.6337 c 0.323414,-0.1446 0.755776,0.06 0.89267,0.4866 0.440047,1.284 1.128753,3.1159 0.954636,3.9851 l -1.416975,0.6337 c -1.256788,-0.054 -1.600112,-2.1991 -2.12221,-3.463 -0.171116,-0.4142 -0.04852,-0.8641 0.274904,-1.0087 z"
         style="fill:#1a1600;fill-opacity:1;stroke:none" />
      <path
         sodipodi:nodetypes="ccscccccc"
         inkscape:connector-curvature="0"
         id="path4384"
         d="m -49.35274,1039.1429 c 4.105281,2.6565 4.865232,0.4095 7.835323,1.8758 0,0 1.914263,1.7229 -0.219605,2.777 -1.985425,0.9807 -4.929911,2.8998 -6.073132,-0.092 l -3.160076,0.4162 c -4.116404,2.5458 -4.9251,-4.7279 -6.000901,-6.9706 -2.054697,-5.2494 -3.308247,-4.3447 -2.054697,-5.2494 1.344025,-1.892 4.371666,-2.066 5.589793,-2.8156 0.978873,6.3393 4.083294,10.0586 4.083294,10.0586 z"
         style="fill:#803300;fill-opacity:1;stroke:none" />
    </g>
    <g
       transform="matrix(0.83490898,0.55038805,-0.55038805,0.83490898,797.29446,211.33343)"
       inkscape:transform-center-y="11.358698"
       inkscape:transform-center-x="16.302659"
       id="g4386">
      <path
         sodipodi:nodetypes="sssss"
         inkscape:connector-curvature="0"
         id="path4388"
         d="m -75.971607,1032.6374 c -2.969045,7.6131 -6.132655,7.76 -8.27501,6.9116 -2.141657,-0.8501 -0.05289,-1.8155 2.916082,-9.4284 2.969008,-7.6129 -0.327634,-13.0819 7.280154,-12.8331 2.369045,0.078 1.047745,7.737 -1.921226,15.3499 z"
         style="fill:#806600;fill-opacity:1;stroke:none"
         inkscape:transform-center-x="3.5365188"
         inkscape:transform-center-y="9.2230805" />
      <path
         style="fill:#806600;fill-opacity:1;stroke:none"
         d="m -78.392859,1015.6189 c -1.159898,7.9893 1.489902,10.1258 3.746707,10.8136 2.256807,0.6879 0.931179,-1.4198 2.091072,-9.4091 1.159897,-7.9895 6.663815,-10.2642 -0.0021,-14.9196 -2.075758,-1.4496 -4.675757,5.5256 -5.835653,13.5151 z"
         id="path4390"
         inkscape:connector-curvature="0"
         sodipodi:nodetypes="sssss" />
      <path
         style="fill:#1a1600;fill-opacity:1;stroke:none"
         d="m -81.248964,1042.561 -1.411703,-0.6454 c -0.322211,-0.1473 -0.756243,0.053 -0.896651,0.4793 -0.450615,1.2803 -1.154399,3.1065 -0.987453,3.9771 l 1.411703,0.6453 c 1.257196,-0.044 1.618186,-2.1859 2.150684,-3.4454 0.174525,-0.4128 0.05564,-0.8637 -0.26658,-1.0109 z"
         id="path4392"
         inkscape:connector-curvature="0"
         sodipodi:nodetypes="ssccccs"
         inkscape:transform-center-x="7.2946346"
         inkscape:transform-center-y="25.076634" />
      <path
         style="fill:#803300;fill-opacity:1;stroke:none"
         d="m -85.518761,1038.4466 c -4.127039,2.6226 -4.868442,0.3694 -7.850519,1.8111 0,0 -1.928399,1.707 0.196707,2.7787 1.977274,0.997 4.905841,2.9404 6.073684,-0.042 l 3.156538,0.4422 c 4.095279,2.5797 4.963905,-4.6871 6.058156,-6.9209 2.097898,-5.2322 3.343948,-4.3172 2.097898,-5.2322 -1.328383,-1.9031 -4.354487,-2.1021 -5.566394,-2.8617 -1.031094,6.331 -4.166069,10.0247 -4.166069,10.0247 z"
         id="path4394"
         inkscape:connector-curvature="0"
         sodipodi:nodetypes="ccscccccc"
         inkscape:transform-center-x="9.2889563"
         inkscape:transform-center-y="17.137514" />
    </g>
    <g
       inkscape:transform-center-y="-2.1450216"
       inkscape:transform-center-x="14.476457"
       transform="matrix(-0.24086967,0.39736941,-0.50975867,-0.11617896,803.82339,1073.7139)"
       id="g4556">
      <path
         style="fill:#806600;fill-opacity:1;stroke:none"
         d="m 26.71933,983.82127 c 4.646834,18.43243 1.24521,19.74903 -2.091078,19.74903 -3.336288,0 -8.596648,-9.68095 -8.596654,-22.76947 -10e-7,-13.08853 4.460861,-34.309 14.405204,-24.39591 4.029206,4.01654 -6.91701,14.72491 -3.717472,27.41635 z"
         id="path4558"
         inkscape:connector-curvature="0"
         sodipodi:nodetypes="sssss" />
      <path
         style="fill:#ffe0bd;fill-opacity:1;stroke:none"
         d="m 30.669146,1009.6113 c -4.482881,1.9185 6.710561,10.2231 2.091078,10.2231 -4.619483,0 -14.405207,-4.4176 -14.405205,-9.2937 -2e-6,-4.8761 3.744829,-8.829 8.364313,-8.829 4.619483,0 8.828998,5.8116 3.949814,7.8996 z"
         id="path4560"
         inkscape:connector-curvature="0"
         sodipodi:nodetypes="sssss" />
      <path
         style="fill:#917c6f;fill-opacity:1;stroke:none"
         d="m 19.894421,998.45275 9.305697,-0.7114 c 0.925069,-0.071 1.597006,2.76185 1.812093,3.34785 l 0.982768,2.6779 c 0.215088,0.586 -0.547321,1.1367 -1.472391,1.2073 l -9.305697,0.7114 c -0.92507,0.071 -1.75784,-0.3539 -1.867212,-0.9521 l -0.927649,-5.07355 c -0.109365,-0.5982 0.547321,-1.1367 1.472391,-1.2074 z"
         id="path4562"
         inkscape:connector-curvature="0"
         sodipodi:nodetypes="sssssssss" />
    </g>
    <g
       inkscape:transform-center-y="-2.3388533"
       inkscape:transform-center-x="-12.763226"
       id="g4564"
       transform="matrix(0.24745016,0.3933053,0.50775435,-0.12464736,-166.95059,1083.3732)">
      <path
         sodipodi:nodetypes="sssss"
         inkscape:connector-curvature="0"
         id="path4566"
         d="m 26.71933,983.82127 c 4.646834,18.43243 1.24521,19.74903 -2.091078,19.74903 -3.336288,0 -8.596648,-9.68095 -8.596654,-22.76947 -10e-7,-13.08853 4.460861,-34.309 14.405204,-24.39591 4.029206,4.01654 -6.91701,14.72491 -3.717472,27.41635 z"
         style="fill:#806600;fill-opacity:1;stroke:none" />
      <path
         sodipodi:nodetypes="sssss"
         inkscape:connector-curvature="0"
         id="path4568"
         d="m 30.669146,1009.6113 c -4.482881,1.9185 6.710561,10.2231 2.091078,10.2231 -4.619483,0 -14.405207,-4.4176 -14.405205,-9.2937 -2e-6,-4.8761 3.744829,-8.829 8.364313,-8.829 4.619483,0 8.828998,5.8116 3.949814,7.8996 z"
         style="fill:#ffe0bd;fill-opacity:1;stroke:none" />
      <path
         sodipodi:nodetypes="sssssssss"
         inkscape:connector-curvature="0"
         id="path4570"
         d="m 19.894421,998.45275 9.305697,-0.7114 c 0.925069,-0.071 1.597006,2.76185 1.812093,3.34785 l 0.982768,2.6779 c 0.215088,0.586 -0.547321,1.1367 -1.472391,1.2073 l -9.305697,0.7114 c -0.92507,0.071 -1.75784,-0.3539 -1.867212,-0.9521 l -0.927649,-5.07355 c -0.109365,-0.5982 0.547321,-1.1367 1.472391,-1.2074 z"
         style="fill:#917c6f;fill-opacity:1;stroke:none" />
    </g>
    <path
       sodipodi:nodetypes="sssss"
       inkscape:connector-curvature="0"
       id="path4500"
       d="m 327.34862,973.58696 c 2.9251,6.439 -2.98793,39.04144 -10.60388,37.61404 -8.03004,-1.5046 -9.38873,-23.56712 -9.01835,-33.31093 0.37458,-9.85456 7.94128,-17.28553 11.30865,-16.17895 5.58296,1.83439 4.59596,3.69229 8.31358,11.87584 z"
       style="fill:#c3834c;fill-opacity:1;stroke:none" />
    <path
       sodipodi:nodetypes="ccccc"
       inkscape:connector-curvature="0"
       id="path4502"
       d="m 315.02547,952.91053 c 2.51655,-2.80834 5.12832,-2.37164 7.93055,0.89157 l -2.78728,12.76577 c -0.89894,3.09529 -3.19072,3.78934 -4.31075,0.22486 -1.74134,-5.80576 -1.58015,-10.08031 -0.83252,-13.8822 z"
       style="fill:url(#linearGradient4594);fill-opacity:1;stroke:none" />
    <path
       sodipodi:nodetypes="ssssss"
       inkscape:connector-curvature="0"
       id="path4504"
       d="m 329.18845,946.93285 c -0.46853,6.62104 -1.82747,6.37158 -5.12038,12.68216 -3.40453,6.5245 -6.37418,9.79312 -9.29894,2.51692 -3.69315,-9.18784 -4.41489,-3.07429 -6.82754,-15.08091 -2.44793,-12.18215 6.95943,-19.2399 14.56402,-14.54697 5.54966,3.4248 7.55778,2.06463 6.68284,14.4288 z"
       style="fill:#ffe0bd;fill-opacity:1;fill-rule:evenodd;stroke:none" />
    <path
       sodipodi:nodetypes="ccccc"
       inkscape:connector-curvature="0"
       id="path4506"
       d="m 312.44643,938.24934 c 0.60606,-0.1034 0.76581,-0.30401 2.01819,-0.35051 0.76608,0.11802 1.09312,0.65819 1.60012,1.03413 -2.10349,0.53846 -3.56829,1.50738 -4.72312,3.00255 0.0364,-1.41498 0.10648,-3.123 1.10481,-3.68617 z"
       style="fill:#800000;fill-opacity:1;stroke:none"
       inkscape:transform-center-x="0.46803499"
       inkscape:transform-center-y="1.0135051" />
    <path
       style="fill:#800000;fill-opacity:1;stroke:none"
       d="m 324.76687,938.18477 c 0.33187,0.51755 0.57893,0.58629 1.11081,1.72106 0.1905,0.75135 -0.17906,1.26335 -0.32717,1.8769 -1.31713,-1.7262 -2.78114,-2.69632 -4.60856,-3.17558 1.31683,-0.5191 2.91662,-1.12153 3.82492,-0.42238 z"
       id="path4508"
       inkscape:connector-curvature="0"
       sodipodi:nodetypes="ccccc"
       inkscape:transform-center-x="-0.80149461"
       inkscape:transform-center-y="1.2288743" />
    <g
       transform="matrix(0.39074631,0.10709562,-0.05955962,0.50019835,333.24281,508.82037)"
       id="g4510">
      <ellipse
         style="fill:#000000;fill-opacity:1;stroke:none"
         id="ellipse4512"
         cx="83.75"
         cy="850.39783"
         rx="3.75"
         ry="5.7142859" />
      <ellipse
         style="fill:#ffffff;fill-opacity:1;stroke:none"
         id="ellipse4514"
         cx="82.321426"
         cy="848.07635"
         rx="1.25"
         ry="1.9642856" />
    </g>
    <g
       id="g4516"
       transform="matrix(0.39074631,0.10709562,-0.05955962,0.50019835,340.16774,508.82037)">
      <ellipse
         ry="5.7142859"
         rx="3.75"
         cy="850.39783"
         cx="83.75"
         id="ellipse4518"
         style="fill:#000000;fill-opacity:1;stroke:none" />
      <ellipse
         ry="1.9642856"
         rx="1.25"
         cy="848.07635"
         cx="82.321426"
         id="ellipse4520"
         style="fill:#ffffff;fill-opacity:1;stroke:none" />
    </g>
    <path
       sodipodi:nodetypes="ccc"
       inkscape:connector-curvature="0"
       id="path4522"
       d="m 315.59134,954.35747 7.78662,0.7786 c 1.79933,9.80491 -11.08407,6.19902 -7.78662,-0.7786 z"
       style="fill:#800000;fill-opacity:1;stroke:none" />
    <path
       style="fill:#f9f9f9;fill-opacity:1;stroke:none"
       d="m 316.74388,957.14269 c 3.53085,-1.75502 4.16379,-0.61214 5.33148,-0.004 1.50635,3.67863 -7.21567,2.25132 -5.33148,0.004 z"
       id="path4524"
       inkscape:connector-curvature="0"
       sodipodi:nodetypes="ccc" />
    <path
       sodipodi:nodetypes="cccc"
       inkscape:connector-curvature="0"
       id="path4526"
       d="m 316.02053,961.32414 c 2.61914,2.53191 5.94462,-0.17343 5.94462,-0.17343 0.42811,1.11273 -1.68892,19.31028 -4.34037,15.50293 -0.008,-5.54063 -2.13431,-10.65121 -1.60425,-15.3295 z"
       style="fill:#800000;fill-opacity:1;stroke:none" />
    <path
       sodipodi:nodetypes="cccccc"
       inkscape:connector-curvature="0"
       id="path4528"
       d="m 320.66278,953.74461 c -2.52272,0.47323 -1.50887,-0.88856 -7.1792,1.53133 -3.6273,2.43009 -2.36421,3.12644 -0.0866,2.82754 2.13225,0.62052 3.60732,-4.03329 4.86323,-1.7868 1.33642,0.15674 2.14396,0.60537 2.31035,0.0348 0.09,-0.73848 1.01447,-1.79594 0.0922,-2.60689 z"
       style="fill:#800000;fill-opacity:1;stroke:none" />
    <path
       sodipodi:nodetypes="sssss"
       inkscape:connector-curvature="0"
       id="path4530"
       d="m 319.94916,945.16723 c 0.3038,5.32493 2.08417,8.23525 -0.96576,8.10802 -3.46736,-0.14465 -1.32441,-2.85099 -0.83683,-7.64317 0.48294,-4.74662 -2.2716,-7.10236 0.52125,-7.17658 3.16577,-0.0841 1.03624,2.41567 1.28134,6.71173 z"
       style="fill:url(#linearGradient4596);fill-opacity:1;stroke:none" />
    <path
       style="fill:#800000;fill-opacity:1;stroke:none"
       d="m 318.53545,953.74461 c 2.52271,0.47323 1.50886,-0.88856 7.17919,1.53133 3.62731,2.43009 2.36421,3.12644 0.0866,2.82754 -2.13225,0.62052 -3.60731,-4.03329 -4.86322,-1.7868 -1.33643,0.15674 -2.14397,0.60537 -2.31036,0.0348 -0.09,-0.73848 -1.01447,-1.79594 -0.0922,-2.60689 z"
       id="path4532"
       inkscape:connector-curvature="0"
       sodipodi:nodetypes="cccccc" />
    <path
       style="opacity:1;fill:#800000;fill-opacity:1;stroke:none;stroke-width:0.5;stroke-linecap:round;stroke-miterlimit:4;stroke-dasharray:none;stroke-opacity:1"
       d="m 329.18788,936.54736 c 1.9931,9.83591 -1.75113,12.58031 -1.08202,7.77334 1.08202,-7.77334 -2.47448,-8.65625 -3.97965,-10.04358 -1.18774,-1.09476 -3.96626,1.31723 -5.0643,1.38207 -2.32608,0.13735 -4.17688,-1.27125 -6.34386,-0.44022 -2.85555,1.09509 -3.49446,8.03782 -3.49804,9.72881 -0.006,3.01885 -1.67252,-0.22129 -1.98966,-1.05323 -1.22457,-3.21237 4.769,-15.64169 12.22516,-14.59341 4.89217,0.6878 9.26856,4.95734 9.73237,7.24622 z"
       id="path4534"
       inkscape:connector-curvature="0"
       sodipodi:nodetypes="sssssssss" />
    <g
       transform="matrix(0.17531228,0.10709562,-0.03167055,0.59282768,324.54642,431.11566)"
       id="g4536">
      <path
         style="fill:url(#linearGradient4598);fill-opacity:1;stroke:none"
         d="m 63.841068,857.81792 c 0,4.31914 0.716986,5.6727 -4.432928,7.51366 -3.62131,1.29452 -9.428188,-4.88208 -9.428188,-9.20121 0,-4.31913 5.951614,-8.11188 9.428188,-6.43977 3.827644,1.84096 4.432928,3.80818 4.432928,8.12732 z"
         id="path4538"
         inkscape:connector-curvature="0"
         sodipodi:nodetypes="sssss" />
      <path
         style="fill:#ad6452;fill-opacity:0.50887571;fill-rule:evenodd;stroke:none"
         d="m 53.471845,851.33338 c 2.407639,-1.79004 4.802903,-1.15691 6.516101,-0.13161 1.806935,1.15349 3.045242,2.63768 1.850325,4.09052 -0.858264,0.65265 -2.0596,0.8235 -3.382806,1.27696 -1.965131,0.67344 -3.172522,2.08037 -4.414429,2.81582 -1.408129,0.12594 1.605161,-2.52983 1.605161,-2.52983 2.707977,-1.59991 4.331234,-2.71617 2.596915,-4.00167 -2.598468,-1.0474 -6.641245,1.3003 -6.641245,1.3003 0.311884,-1.24739 0.771277,-1.77621 1.869978,-2.82049 z"
         id="path4540"
         inkscape:connector-curvature="0"
         sodipodi:nodetypes="cccsccccc" />
      <ellipse
         style="fill:#ffe0bd;fill-opacity:1;stroke:none"
         id="ellipse4542"
         cx="-324.3681"
         cy="788.78729"
         rx="3.9439082"
         ry="2.1201811"
         transform="matrix(0.88500782,-0.46557615,0.43875165,0.89860836,0,0)" />
    </g>
    <g
       id="g4544"
       transform="matrix(-0.17531228,0.10709562,0.03167055,0.59282768,312.57184,431.24686)">
      <path
         sodipodi:nodetypes="sssss"
         inkscape:connector-curvature="0"
         id="path4546"
         d="m 63.841068,857.81792 c 0,4.31914 0.716986,5.6727 -4.432928,7.51366 -3.62131,1.29452 -9.428188,-4.88208 -9.428188,-9.20121 0,-4.31913 5.951614,-8.11188 9.428188,-6.43977 3.827644,1.84096 4.432928,3.80818 4.432928,8.12732 z"
         style="fill:url(#linearGradient4601);fill-opacity:1;stroke:none" />
      <path
         sodipodi:nodetypes="cccsccccc"
         inkscape:connector-curvature="0"
         id="path4548"
         d="m 53.471845,851.33338 c 2.407639,-1.79004 4.802903,-1.15691 6.516101,-0.13161 1.806935,1.15349 3.045242,2.63768 1.850325,4.09052 -0.858264,0.65265 -2.0596,0.8235 -3.382806,1.27696 -1.965131,0.67344 -3.172522,2.08037 -4.414429,2.81582 -1.408129,0.12594 1.605161,-2.52983 1.605161,-2.52983 2.707977,-1.59991 4.331234,-2.71617 2.596915,-4.00167 -2.598468,-1.0474 -6.641245,1.3003 -6.641245,1.3003 0.311884,-1.24739 0.771277,-1.77621 1.869978,-2.82049 z"
         style="fill:#ad6452;fill-opacity:0.50887571;fill-rule:evenodd;stroke:none" />
      <ellipse
         transform="matrix(0.88500782,-0.46557615,0.43875165,0.89860836,0,0)"
         ry="2.1201811"
         rx="3.9439082"
         cy="788.78729"
         cx="-324.3681"
         id="ellipse4550"
         style="fill:#ffe0bd;fill-opacity:1;stroke:none" />
    </g>
    <path
       sodipodi:nodetypes="sssss"
       inkscape:connector-curvature="0"
       id="path4552"
       d="m 324.97135,1008.6124 c -0.76411,6.4058 -1.84777,7.2291 -6.90167,7.9397 -4.4973,0.6323 -7.87109,-2.4323 -8.3198,-8.8678 -0.44239,-6.3449 2.12367,-7.0722 8.72016,-6.9109 4.54015,0.111 7.26617,1.427 6.50131,7.839 z"
       style="fill:#c3834c;fill-opacity:1;stroke:none" />
    <rect
       style="opacity:1;fill:#803300;fill-opacity:1;stroke:none;stroke-width:0.5;stroke-linecap:round;stroke-miterlimit:4;stroke-dasharray:none;stroke-opacity:1"
       id="rect4554"
       width="19.248846"
       height="4.6277714"
       x="307.59924"
       y="1002.0595"
       rx="0.736444"
       ry="0.94539201" />
    <g
       id="g4572"
       transform="matrix(0.57848692,-0.81569166,0.81569166,0.57848692,-461.77805,378.95589)"
       inkscape:transform-center-x="-18.225314"
       inkscape:transform-center-y="5.390336">
      <path
         inkscape:transform-center-y="8.7346203"
         inkscape:transform-center-x="-3.0432261"
         sodipodi:nodetypes="sssss"
         inkscape:connector-curvature="0"
         id="path4574"
         d="m -58.851684,1033.2553 c 2.906189,7.6373 6.06848,7.8102 8.217756,6.9795 2.148592,-0.8324 0.06785,-1.815 -2.838265,-9.4521 -2.906153,-7.6372 0.435458,-13.0788 -7.174123,-12.8926 -2.369603,0.058 -1.111486,7.7281 1.794632,15.3652 z"
         style="fill:#806600;fill-opacity:1;stroke:none" />
      <path
         style="fill:#806600;fill-opacity:1;stroke:none"
         d="m -56.107701,1016.1189 c 1.159898,7.9893 -1.489902,10.1258 -3.746707,10.8136 -2.256807,0.6879 -0.931179,-1.4198 -2.091072,-9.4091 -1.159897,-7.9895 -6.663815,-10.2642 0.0021,-14.9196 2.075758,-1.4496 4.675757,5.5256 5.835653,13.5151 z"
         id="path4576"
         inkscape:connector-curvature="0"
         sodipodi:nodetypes="sssss" />
      <path
         style="fill:#1a1600;fill-opacity:1;stroke:none"
         d="m -53.656307,1043.222 1.416975,-0.6337 c 0.323414,-0.1446 0.755776,0.06 0.89267,0.4866 0.440047,1.284 1.128753,3.1159 0.954636,3.9851 l -1.416975,0.6337 c -1.256788,-0.054 -1.600112,-2.1991 -2.12221,-3.463 -0.171116,-0.4142 -0.04852,-0.8641 0.274904,-1.0087 z"
         id="path4578"
         inkscape:connector-curvature="0"
         sodipodi:nodetypes="ssccccs" />
      <path
         style="fill:#803300;fill-opacity:1;stroke:none"
         d="m -49.35274,1039.1429 c 4.105281,2.6565 4.865232,0.4095 7.835323,1.8758 0,0 1.914263,1.7229 -0.219605,2.777 -1.985425,0.9807 -4.929911,2.8998 -6.073132,-0.092 l -3.160076,0.4162 c -4.116404,2.5458 -4.9251,-4.7279 -6.000901,-6.9706 -2.054697,-5.2494 -3.308247,-4.3447 -2.054697,-5.2494 1.344025,-1.892 4.371666,-2.066 5.589793,-2.8156 0.978873,6.3393 4.083294,10.0586 4.083294,10.0586 z"
         id="path4580"
         inkscape:connector-curvature="0"
         sodipodi:nodetypes="ccscccccc" />
    </g>
    <g
       id="g4582"
       inkscape:transform-center-x="18.042924"
       inkscape:transform-center-y="5.7173143"
       transform="matrix(0.58495099,0.81106864,-0.81106864,0.58495099,1170.6734,482.1856)">
      <path
         inkscape:transform-center-y="9.2230805"
         inkscape:transform-center-x="3.5365188"
         style="fill:#806600;fill-opacity:1;stroke:none"
         d="m -75.971607,1032.6374 c -2.969045,7.6131 -6.132655,7.76 -8.27501,6.9116 -2.141657,-0.8501 -0.05289,-1.8155 2.916082,-9.4284 2.969008,-7.6129 -0.327634,-13.0819 7.280154,-12.8331 2.369045,0.078 1.047745,7.737 -1.921226,15.3499 z"
         id="path4584"
         inkscape:connector-curvature="0"
         sodipodi:nodetypes="sssss" />
      <path
         sodipodi:nodetypes="sssss"
         inkscape:connector-curvature="0"
         id="path4586"
         d="m -78.392859,1015.6189 c -1.159898,7.9893 1.489902,10.1258 3.746707,10.8136 2.256807,0.6879 0.931179,-1.4198 2.091072,-9.4091 1.159897,-7.9895 6.663815,-10.2642 -0.0021,-14.9196 -2.075758,-1.4496 -4.675757,5.5256 -5.835653,13.5151 z"
         style="fill:#806600;fill-opacity:1;stroke:none" />
      <path
         inkscape:transform-center-y="25.076634"
         inkscape:transform-center-x="7.2946346"
         sodipodi:nodetypes="ssccccs"
         inkscape:connector-curvature="0"
         id="path4588"
         d="m -81.248964,1042.561 -1.411703,-0.6454 c -0.322211,-0.1473 -0.756243,0.053 -0.896651,0.4793 -0.450615,1.2803 -1.154399,3.1065 -0.987453,3.9771 l 1.411703,0.6453 c 1.257196,-0.044 1.618186,-2.1859 2.150684,-3.4454 0.174525,-0.4128 0.05564,-0.8637 -0.26658,-1.0109 z"
         style="fill:#1a1600;fill-opacity:1;stroke:none" />
      <path
         inkscape:transform-center-y="17.137514"
         inkscape:transform-center-x="9.2889563"
         sodipodi:nodetypes="ccscccccc"
         inkscape:connector-curvature="0"
         id="path4590"
         d="m -85.518761,1038.4466 c -4.127039,2.6226 -4.868442,0.3694 -7.850519,1.8111 0,0 -1.928399,1.707 0.196707,2.7787 1.977274,0.997 4.905841,2.9404 6.073684,-0.042 l 3.156538,0.4422 c 4.095279,2.5797 4.963905,-4.6871 6.058156,-6.9209 2.097898,-5.2322 3.343948,-4.3172 2.097898,-5.2322 -1.328383,-1.9031 -4.354487,-2.1021 -5.566394,-2.8617 -1.031094,6.331 -4.166069,10.0247 -4.166069,10.0247 z"
         style="fill:#803300;fill-opacity:1;stroke:none" />
    </g>
  </g>
</svg>
